<svg width="397" height="379" viewBox="0 0 397 379" fill="none" xmlns="http://www.w3.org/2000/svg">
<g filter="url(#filter0_d_123_88)">
<g clip-path="url(#clip0_123_88)">
<rect x="31" y="31" width="334.253" height="355" rx="6.14719" fill="white"/>
<path d="M120.734 74.6466V79.126H119.265V71.5817H120.675V72.8096H120.768C120.942 72.4101 121.214 72.0892 121.584 71.8469C121.957 71.6046 122.427 71.4835 122.993 71.4835C123.507 71.4835 123.957 71.5915 124.344 71.8076C124.73 72.0205 125.03 72.3381 125.243 72.7605C125.456 73.1829 125.562 73.7052 125.562 74.3273V79.126H124.093V74.5041C124.093 73.9573 123.951 73.53 123.666 73.2222C123.381 72.9111 122.99 72.7556 122.492 72.7556C122.152 72.7556 121.849 72.8293 121.584 72.9766C121.322 73.124 121.114 73.3401 120.96 73.6249C120.809 73.9065 120.734 74.2471 120.734 74.6466ZM131.198 79.2782C130.455 79.2782 129.815 79.1194 129.278 78.8018C128.744 78.4809 128.331 78.0307 128.04 77.4511C127.752 76.8683 127.608 76.1855 127.608 75.403C127.608 74.6302 127.752 73.9491 128.04 73.3597C128.331 72.7703 128.737 72.3103 129.258 71.9795C129.782 71.6488 130.394 71.4835 131.095 71.4835C131.52 71.4835 131.933 71.5539 132.333 71.6947C132.732 71.8355 133.091 72.0565 133.408 72.3577C133.726 72.659 133.976 73.0503 134.16 73.5316C134.343 74.0097 134.435 74.5909 134.435 75.2753V75.7959H128.438V74.6957H132.996C132.996 74.3093 132.917 73.9671 132.76 73.6691C132.603 73.3679 132.382 73.1305 132.097 72.957C131.815 72.7834 131.484 72.6966 131.105 72.6966C130.692 72.6966 130.332 72.7982 130.024 73.0012C129.72 73.2009 129.484 73.4629 129.317 73.787C129.153 74.1079 129.071 74.4566 129.071 74.8332V75.6927C129.071 76.197 129.16 76.626 129.336 76.9796C129.517 77.3332 129.767 77.6034 130.088 77.79C130.409 77.9734 130.784 78.0651 131.213 78.0651C131.491 78.0651 131.745 78.0258 131.974 77.9472C132.203 77.8653 132.401 77.7442 132.568 77.5837C132.735 77.4233 132.863 77.2252 132.951 76.9894L134.341 77.2399C134.23 77.6492 134.03 78.0078 133.742 78.3156C133.457 78.6201 133.099 78.8575 132.667 79.0277C132.238 79.1947 131.748 79.2782 131.198 79.2782ZM138.101 79.126L135.881 71.5817H137.399L138.877 77.122H138.951L140.434 71.5817H141.952L143.425 77.0975H143.499L144.968 71.5817H146.485L144.27 79.126H142.772L141.24 73.679H141.127L139.594 79.126H138.101ZM152.369 79.126V71.5817H153.779V72.8096H153.872C154.029 72.3938 154.286 72.0696 154.643 71.8371C155 71.6013 155.428 71.4835 155.925 71.4835C156.43 71.4835 156.852 71.6013 157.193 71.8371C157.536 72.0729 157.79 72.397 157.954 72.8096H158.032C158.212 72.4069 158.499 72.086 158.892 71.8469C159.285 71.6046 159.753 71.4835 160.297 71.4835C160.981 71.4835 161.539 71.6979 161.972 72.1269C162.407 72.5558 162.625 73.2025 162.625 74.067V79.126H161.156V74.2045C161.156 73.6937 161.017 73.3237 160.739 73.0945C160.46 72.8653 160.128 72.7507 159.742 72.7507C159.264 72.7507 158.892 72.898 158.627 73.1927C158.361 73.4841 158.229 73.8591 158.229 74.3175V79.126H156.765V74.1112C156.765 73.7019 156.637 73.3728 156.382 73.124C156.127 72.8751 155.794 72.7507 155.385 72.7507C155.107 72.7507 154.85 72.8243 154.614 72.9717C154.381 73.1158 154.193 73.3171 154.049 73.5758C153.908 73.8345 153.838 74.1341 153.838 74.4747V79.126H152.369ZM167.204 79.293C166.725 79.293 166.293 79.2046 165.907 79.0277C165.52 78.8477 165.214 78.5873 164.988 78.2468C164.766 77.9063 164.654 77.4888 164.654 76.9943C164.654 76.5687 164.736 76.2183 164.9 75.9432C165.064 75.6682 165.285 75.4504 165.563 75.29C165.841 75.1295 166.152 75.0084 166.496 74.9265C166.84 74.8447 167.19 74.7825 167.547 74.7399C167.999 74.6875 168.366 74.6449 168.648 74.6122C168.929 74.5762 169.134 74.5189 169.262 74.4403C169.389 74.3617 169.453 74.234 169.453 74.0572V74.0228C169.453 73.5938 169.332 73.2615 169.09 73.0257C168.851 72.79 168.494 72.6721 168.019 72.6721C167.524 72.6721 167.135 72.7818 166.85 73.0012C166.568 73.2173 166.373 73.4579 166.265 73.7232L164.885 73.4088C165.049 72.9504 165.288 72.5804 165.602 72.2988C165.92 72.0139 166.285 71.8076 166.698 71.6799C167.11 71.549 167.544 71.4835 167.999 71.4835C168.3 71.4835 168.62 71.5195 168.957 71.5915C169.298 71.6603 169.615 71.788 169.91 71.9746C170.208 72.1613 170.452 72.4281 170.642 72.7752C170.832 73.119 170.927 73.566 170.927 74.1161V79.126H169.492V78.0945H169.433C169.338 78.2844 169.196 78.4711 169.006 78.6545C168.816 78.8378 168.572 78.9901 168.274 79.1112C167.976 79.2324 167.619 79.293 167.204 79.293ZM167.523 78.1142C167.929 78.1142 168.276 78.034 168.564 77.8735C168.856 77.7131 169.077 77.5035 169.227 77.2448C169.381 76.9829 169.458 76.7029 169.458 76.4049V75.4324C169.406 75.4848 169.304 75.5339 169.153 75.5798C169.006 75.6223 168.837 75.66 168.648 75.6927C168.458 75.7222 168.273 75.75 168.093 75.7762C167.912 75.7992 167.762 75.8188 167.641 75.8352C167.356 75.8712 167.095 75.9318 166.86 76.0169C166.627 76.102 166.441 76.2248 166.3 76.3853C166.162 76.5425 166.094 76.752 166.094 77.014C166.094 77.3774 166.228 77.6525 166.496 77.8391C166.765 78.0225 167.107 78.1142 167.523 78.1142ZM174.766 74.6466V79.126H173.298V71.5817H174.707V72.8096H174.801C174.974 72.4101 175.246 72.0892 175.616 71.8469C175.989 71.6046 176.459 71.4835 177.026 71.4835C177.54 71.4835 177.99 71.5915 178.376 71.8076C178.763 72.0205 179.062 72.3381 179.275 72.7605C179.488 73.1829 179.594 73.7052 179.594 74.3273V79.126H178.126V74.5041C178.126 73.9573 177.983 73.53 177.698 73.2222C177.414 72.9111 177.022 72.7556 176.525 72.7556C176.184 72.7556 175.881 72.8293 175.616 72.9766C175.354 73.124 175.146 73.3401 174.992 73.6249C174.841 73.9065 174.766 74.2471 174.766 74.6466ZM186.758 75.9973V71.5817H188.231V79.126H186.787V77.8195H186.709C186.535 78.2222 186.257 78.5579 185.874 78.8264C185.494 79.0916 185.021 79.2242 184.454 79.2242C183.97 79.2242 183.541 79.1178 183.167 78.905C182.797 78.6888 182.506 78.3696 182.293 77.9472C182.084 77.5248 181.979 77.0025 181.979 76.3804V71.5817H183.447V76.2036C183.447 76.7176 183.59 77.1269 183.875 77.4315C184.16 77.736 184.53 77.8882 184.985 77.8882C185.26 77.8882 185.533 77.8195 185.805 77.682C186.08 77.5444 186.308 77.3365 186.488 77.0582C186.671 76.7799 186.761 76.4262 186.758 75.9973ZM192.815 79.293C192.337 79.293 191.905 79.2046 191.518 79.0277C191.132 78.8477 190.826 78.5873 190.6 78.2468C190.377 77.9063 190.266 77.4888 190.266 76.9943C190.266 76.5687 190.348 76.2183 190.511 75.9432C190.675 75.6682 190.896 75.4504 191.175 75.29C191.453 75.1295 191.764 75.0084 192.108 74.9265C192.452 74.8447 192.802 74.7825 193.159 74.7399C193.611 74.6875 193.977 74.6449 194.259 74.6122C194.541 74.5762 194.745 74.5189 194.873 74.4403C195.001 74.3617 195.065 74.234 195.065 74.0572V74.0228C195.065 73.5938 194.943 73.2615 194.701 73.0257C194.462 72.79 194.105 72.6721 193.63 72.6721C193.136 72.6721 192.746 72.7818 192.461 73.0012C192.18 73.2173 191.985 73.4579 191.877 73.7232L190.497 73.4088C190.66 72.9504 190.899 72.5804 191.214 72.2988C191.531 72.0139 191.897 71.8076 192.309 71.6799C192.722 71.549 193.156 71.4835 193.611 71.4835C193.912 71.4835 194.231 71.5195 194.568 71.5915C194.909 71.6603 195.227 71.788 195.521 71.9746C195.819 72.1613 196.063 72.4281 196.253 72.7752C196.443 73.119 196.538 73.566 196.538 74.1161V79.126H195.104V78.0945H195.045C194.95 78.2844 194.807 78.4711 194.618 78.6545C194.428 78.8378 194.184 78.9901 193.886 79.1112C193.588 79.2324 193.231 79.293 192.815 79.293ZM193.134 78.1142C193.54 78.1142 193.887 78.034 194.176 77.8735C194.467 77.7131 194.688 77.5035 194.839 77.2448C194.992 76.9829 195.069 76.7029 195.069 76.4049V75.4324C195.017 75.4848 194.916 75.5339 194.765 75.5798C194.618 75.6223 194.449 75.66 194.259 75.6927C194.069 75.7222 193.884 75.75 193.704 75.7762C193.524 75.7992 193.373 75.8188 193.252 75.8352C192.967 75.8712 192.707 75.9318 192.471 76.0169C192.239 76.102 192.052 76.2248 191.911 76.3853C191.774 76.5425 191.705 76.752 191.705 77.014C191.705 77.3774 191.839 77.6525 192.108 77.8391C192.376 78.0225 192.718 78.1142 193.134 78.1142ZM200.378 69.0669V79.126H198.909V69.0669H200.378ZM210.021 79.2782C209.291 79.2782 208.663 79.1129 208.135 78.7822C207.611 78.4482 207.209 77.9881 206.927 77.402C206.645 76.8159 206.505 76.1446 206.505 75.3882C206.505 74.622 206.649 73.9458 206.937 73.3597C207.225 72.7703 207.631 72.3103 208.155 71.9795C208.679 71.6488 209.296 71.4835 210.007 71.4835C210.58 71.4835 211.09 71.5899 211.539 71.8027C211.988 72.0123 212.35 72.307 212.625 72.6868C212.903 73.0667 213.068 73.5103 213.121 74.0179H211.691C211.613 73.6642 211.433 73.3597 211.151 73.1043C210.873 72.8489 210.499 72.7212 210.031 72.7212C209.622 72.7212 209.263 72.8293 208.956 73.0454C208.651 73.2582 208.414 73.5627 208.243 73.9589C208.073 74.3519 207.988 74.8168 207.988 75.3538C207.988 75.9039 208.071 76.3787 208.238 76.7782C208.405 77.1777 208.641 77.4871 208.946 77.7065C209.254 77.9259 209.615 78.0356 210.031 78.0356C210.31 78.0356 210.562 77.9848 210.788 77.8833C211.017 77.7786 211.208 77.6296 211.362 77.4364C211.519 77.2432 211.629 77.0107 211.691 76.7389H213.121C213.068 77.2268 212.909 77.6623 212.644 78.0454C212.379 78.4285 212.024 78.7298 211.578 78.9492C211.136 79.1685 210.617 79.2782 210.021 79.2782ZM217.302 79.293C216.823 79.293 216.391 79.2046 216.005 79.0277C215.619 78.8477 215.312 78.5873 215.086 78.2468C214.864 77.9063 214.752 77.4888 214.752 76.9943C214.752 76.5687 214.834 76.2183 214.998 75.9432C215.162 75.6682 215.383 75.4504 215.661 75.29C215.939 75.1295 216.25 75.0084 216.594 74.9265C216.938 74.8447 217.288 74.7825 217.645 74.7399C218.097 74.6875 218.464 74.6449 218.746 74.6122C219.027 74.5762 219.232 74.5189 219.36 74.4403C219.487 74.3617 219.551 74.234 219.551 74.0572V74.0228C219.551 73.5938 219.43 73.2615 219.188 73.0257C218.949 72.79 218.592 72.6721 218.117 72.6721C217.622 72.6721 217.233 72.7818 216.948 73.0012C216.666 73.2173 216.471 73.4579 216.363 73.7232L214.983 73.4088C215.147 72.9504 215.386 72.5804 215.7 72.2988C216.018 72.0139 216.383 71.8076 216.796 71.6799C217.208 71.549 217.642 71.4835 218.097 71.4835C218.398 71.4835 218.718 71.5195 219.055 71.5915C219.396 71.6603 219.713 71.788 220.008 71.9746C220.306 72.1613 220.55 72.4281 220.74 72.7752C220.93 73.119 221.025 73.566 221.025 74.1161V79.126H219.59V78.0945H219.531C219.436 78.2844 219.294 78.4711 219.104 78.6545C218.914 78.8378 218.67 78.9901 218.372 79.1112C218.074 79.2324 217.717 79.293 217.302 79.293ZM217.621 78.1142C218.027 78.1142 218.374 78.034 218.662 77.8735C218.954 77.7131 219.175 77.5035 219.325 77.2448C219.479 76.9829 219.556 76.7029 219.556 76.4049V75.4324C219.504 75.4848 219.402 75.5339 219.251 75.5798C219.104 75.6223 218.935 75.66 218.746 75.6927C218.556 75.7222 218.371 75.75 218.191 75.7762C218.01 75.7992 217.86 75.8188 217.739 75.8352C217.454 75.8712 217.194 75.9318 216.958 76.0169C216.725 76.102 216.539 76.2248 216.398 76.3853C216.26 76.5425 216.192 76.752 216.192 77.014C216.192 77.3774 216.326 77.6525 216.594 77.8391C216.863 78.0225 217.205 78.1142 217.621 78.1142ZM223.396 79.126V71.5817H224.805V72.8096H224.899C225.056 72.3938 225.313 72.0696 225.67 71.8371C226.027 71.6013 226.454 71.4835 226.952 71.4835C227.456 71.4835 227.878 71.6013 228.219 71.8371C228.563 72.0729 228.816 72.397 228.98 72.8096H229.059C229.239 72.4069 229.525 72.086 229.918 71.8469C230.311 71.6046 230.779 71.4835 231.323 71.4835C232.007 71.4835 232.566 71.6979 232.998 72.1269C233.433 72.5558 233.651 73.2025 233.651 74.067V79.126H232.182V74.2045C232.182 73.6937 232.043 73.3237 231.765 73.0945C231.487 72.8653 231.154 72.7507 230.768 72.7507C230.29 72.7507 229.918 72.898 229.653 73.1927C229.388 73.4841 229.255 73.8591 229.255 74.3175V79.126H227.791V74.1112C227.791 73.7019 227.664 73.3728 227.408 73.124C227.153 72.8751 226.821 72.7507 226.411 72.7507C226.133 72.7507 225.876 72.8243 225.64 72.9717C225.408 73.1158 225.219 73.3171 225.075 73.5758C224.935 73.8345 224.864 74.1341 224.864 74.4747V79.126H223.396ZM236.034 81.9551V71.5817H237.469V72.8047H237.591C237.676 72.6475 237.799 72.4658 237.96 72.2595C238.12 72.0532 238.343 71.8731 238.628 71.7192C238.913 71.5621 239.289 71.4835 239.757 71.4835C240.366 71.4835 240.91 71.6374 241.388 71.9452C241.866 72.253 242.241 72.6966 242.513 73.2762C242.788 73.8558 242.925 74.5532 242.925 75.3686C242.925 76.1839 242.789 76.883 242.518 77.4658C242.246 78.0454 241.873 78.4924 241.398 78.8067C240.923 79.1178 240.381 79.2733 239.772 79.2733C239.314 79.2733 238.939 79.1964 238.647 79.0425C238.359 78.8886 238.133 78.7085 237.97 78.5022C237.806 78.2959 237.68 78.1125 237.591 77.9521H237.503V81.9551H236.034ZM237.473 75.3538C237.473 75.8843 237.55 76.3493 237.704 76.7487C237.858 77.1482 238.081 77.4609 238.372 77.6869C238.664 77.9095 239.021 78.0209 239.443 78.0209C239.882 78.0209 240.249 77.9046 240.543 77.6721C240.838 77.4364 241.061 77.1171 241.211 76.7144C241.365 76.3116 241.442 75.8581 241.442 75.3538C241.442 74.8561 241.367 74.4092 241.216 74.013C241.069 73.6168 240.846 73.304 240.548 73.0748C240.253 72.8456 239.885 72.731 239.443 72.731C239.017 72.731 238.657 72.8407 238.362 73.0601C238.071 73.2795 237.85 73.5857 237.699 73.9786C237.549 74.3715 237.473 74.8299 237.473 75.3538ZM247.181 79.293C246.703 79.293 246.271 79.2046 245.885 79.0277C245.498 78.8477 245.192 78.5873 244.966 78.2468C244.743 77.9063 244.632 77.4888 244.632 76.9943C244.632 76.5687 244.714 76.2183 244.878 75.9432C245.041 75.6682 245.262 75.4504 245.541 75.29C245.819 75.1295 246.13 75.0084 246.474 74.9265C246.818 74.8447 247.168 74.7825 247.525 74.7399C247.977 74.6875 248.344 74.6449 248.625 74.6122C248.907 74.5762 249.111 74.5189 249.239 74.4403C249.367 74.3617 249.431 74.234 249.431 74.0572V74.0228C249.431 73.5938 249.31 73.2615 249.067 73.0257C248.828 72.79 248.471 72.6721 247.997 72.6721C247.502 72.6721 247.112 72.7818 246.828 73.0012C246.546 73.2173 246.351 73.4579 246.243 73.7232L244.863 73.4088C245.027 72.9504 245.266 72.5804 245.58 72.2988C245.898 72.0139 246.263 71.8076 246.675 71.6799C247.088 71.549 247.522 71.4835 247.977 71.4835C248.278 71.4835 248.597 71.5195 248.935 71.5915C249.275 71.6603 249.593 71.788 249.888 71.9746C250.185 72.1613 250.429 72.4281 250.619 72.7752C250.809 73.119 250.904 73.566 250.904 74.1161V79.126H249.47V78.0945H249.411C249.316 78.2844 249.174 78.4711 248.984 78.6545C248.794 78.8378 248.55 78.9901 248.252 79.1112C247.954 79.2324 247.597 79.293 247.181 79.293ZM247.5 78.1142C247.906 78.1142 248.254 78.034 248.542 77.8735C248.833 77.7131 249.054 77.5035 249.205 77.2448C249.359 76.9829 249.436 76.7029 249.436 76.4049V75.4324C249.383 75.4848 249.282 75.5339 249.131 75.5798C248.984 75.6223 248.815 75.66 248.625 75.6927C248.435 75.7222 248.25 75.75 248.07 75.7762C247.89 75.7992 247.74 75.8188 247.618 75.8352C247.333 75.8712 247.073 75.9318 246.837 76.0169C246.605 76.102 246.418 76.2248 246.277 76.3853C246.14 76.5425 246.071 76.752 246.071 77.014C246.071 77.3774 246.205 77.6525 246.474 77.8391C246.742 78.0225 247.085 78.1142 247.5 78.1142ZM253.275 79.126V71.5817H254.744V79.126H253.275ZM254.017 70.4176C253.761 70.4176 253.542 70.3325 253.359 70.1622C253.179 69.9887 253.089 69.7824 253.089 69.5434C253.089 69.3011 253.179 69.0948 253.359 68.9245C253.542 68.751 253.761 68.6642 254.017 68.6642C254.272 68.6642 254.49 68.751 254.67 68.9245C254.853 69.0948 254.945 69.3011 254.945 69.5434C254.945 69.7824 254.853 69.9887 254.67 70.1622C254.49 70.3325 254.272 70.4176 254.017 70.4176ZM260.298 82.1123C259.698 82.1123 259.183 82.0337 258.75 81.8765C258.321 81.7193 257.971 81.5114 257.699 81.2527C257.428 80.994 257.224 80.7108 257.09 80.403L258.353 79.8824C258.441 80.0264 258.559 80.1787 258.706 80.3392C258.857 80.5029 259.06 80.642 259.315 80.7566C259.574 80.8712 259.906 80.9285 260.312 80.9285C260.869 80.9285 261.329 80.7927 261.692 80.5209C262.056 80.2524 262.238 79.8234 262.238 79.234V77.7507H262.144C262.056 77.9112 261.928 78.0896 261.761 78.2861C261.597 78.4826 261.372 78.6528 261.083 78.7969C260.795 78.941 260.42 79.013 259.959 79.013C259.363 79.013 258.826 78.8738 258.348 78.5955C257.873 78.3139 257.496 77.8997 257.218 77.3529C256.943 76.8028 256.805 76.1266 256.805 75.3244C256.805 74.5221 256.941 73.8345 257.213 73.2615C257.488 72.6885 257.865 72.2497 258.343 71.9452C258.821 71.6374 259.363 71.4835 259.968 71.4835C260.437 71.4835 260.815 71.5621 261.103 71.7192C261.391 71.8731 261.615 72.0532 261.776 72.2595C261.94 72.4658 262.066 72.6475 262.154 72.8047H262.262V71.5817H263.701V79.293C263.701 79.9413 263.551 80.4734 263.249 80.8893C262.948 81.3051 262.541 81.6129 262.026 81.8126C261.516 82.0124 260.939 82.1123 260.298 82.1123ZM260.283 77.7949C260.705 77.7949 261.062 77.6967 261.354 77.5002C261.648 77.3005 261.871 77.0156 262.022 76.6456C262.175 76.2723 262.252 75.8254 262.252 75.3047C262.252 74.7972 262.177 74.3502 262.026 73.9638C261.876 73.5775 261.655 73.2762 261.363 73.0601C261.072 72.8407 260.712 72.731 260.283 72.731C259.841 72.731 259.472 72.8456 259.178 73.0748C258.883 73.3008 258.66 73.6086 258.51 73.9982C258.362 74.3879 258.289 74.8234 258.289 75.3047C258.289 75.7992 258.364 76.233 258.515 76.6063C258.665 76.9796 258.888 77.271 259.183 77.4806C259.481 77.6901 259.847 77.7949 260.283 77.7949ZM267.554 74.6466V79.126H266.086V71.5817H267.495V72.8096H267.589C267.762 72.4101 268.034 72.0892 268.404 71.8469C268.777 71.6046 269.247 71.4835 269.814 71.4835C270.328 71.4835 270.778 71.5915 271.164 71.8076C271.551 72.0205 271.85 72.3381 272.063 72.7605C272.276 73.1829 272.383 73.7052 272.383 74.3273V79.126H270.914V74.5041C270.914 73.9573 270.771 73.53 270.487 73.2222C270.202 72.9111 269.81 72.7556 269.313 72.7556C268.972 72.7556 268.669 72.8293 268.404 72.9766C268.142 73.124 267.934 73.3401 267.78 73.6249C267.63 73.9065 267.554 74.2471 267.554 74.6466Z" fill="black"/>
<path d="M84.0379 123.091C83.8493 123.026 83.6444 122.973 83.4231 122.932C83.21 122.882 82.9969 122.858 82.7838 122.858C81.9806 122.858 81.3823 123.046 80.9889 123.423C80.5954 123.8 80.3987 124.399 80.3987 125.218C80.3987 125.579 80.4561 125.903 80.5708 126.19C80.6856 126.468 80.8495 126.706 81.0626 126.903C81.2757 127.099 81.5298 127.251 81.8249 127.358C82.1281 127.464 82.4601 127.517 82.8207 127.517C83.2059 127.517 83.5789 127.452 83.9395 127.321C84.3083 127.19 84.6157 127.017 84.8616 126.804L85.2919 127.517C85.1771 127.616 85.0337 127.718 84.8616 127.825C84.6895 127.931 84.4886 128.034 84.2592 128.132C84.0379 128.222 83.7879 128.296 83.5092 128.353C83.2387 128.411 82.9437 128.44 82.624 128.44C82.0912 128.44 81.62 128.366 81.2101 128.218C80.8085 128.062 80.4725 127.845 80.202 127.567C79.9315 127.28 79.7266 126.94 79.5873 126.546C79.448 126.145 79.3783 125.702 79.3783 125.218C79.3783 124.702 79.448 124.243 79.5873 123.841C79.7348 123.44 79.9438 123.104 80.2143 122.833C80.4848 122.563 80.8126 122.358 81.1979 122.219C81.5831 122.071 82.0134 121.997 82.4888 121.997C83.0953 121.997 83.5871 122.051 83.9641 122.157C84.3493 122.264 84.6731 122.382 84.9353 122.514L84.923 122.551V124.259H84.0379V123.091ZM86.8731 119.686H88.9139V126.227C88.9139 126.727 88.9959 127.079 89.1598 127.284C89.3319 127.489 89.5819 127.591 89.9098 127.591C90.1393 127.591 90.3729 127.546 90.6105 127.456C90.8482 127.366 91.0654 127.239 91.2621 127.075L91.7047 127.726C91.5736 127.841 91.4302 127.944 91.2744 128.034C91.1187 128.124 90.9589 128.202 90.795 128.267C90.631 128.325 90.4671 128.37 90.3032 128.403C90.1393 128.435 89.9876 128.452 89.8483 128.452C89.545 128.452 89.2746 128.411 89.0369 128.329C88.7992 128.255 88.5984 128.132 88.4344 127.96C88.2787 127.788 88.1599 127.563 88.0779 127.284C87.9959 126.997 87.955 126.645 87.955 126.227V120.51H86.8731V119.686ZM94.6752 128.292V127.468H96.8144V122.969H94.6752V122.145H97.7979V127.468H99.888V128.292H94.6752ZM96.4824 120.399C96.4824 120.178 96.5562 119.989 96.7037 119.833C96.8513 119.67 97.0398 119.588 97.2693 119.588C97.507 119.588 97.7037 119.67 97.8594 119.833C98.0233 119.989 98.1053 120.178 98.1053 120.399C98.1053 120.612 98.0233 120.792 97.8594 120.94C97.7037 121.087 97.507 121.161 97.2693 121.161C97.0398 121.161 96.8513 121.087 96.7037 120.94C96.5562 120.792 96.4824 120.612 96.4824 120.399ZM107.26 127.517C107.112 127.649 106.936 127.772 106.731 127.886C106.534 128.001 106.317 128.099 106.08 128.181C105.842 128.263 105.592 128.325 105.33 128.366C105.076 128.415 104.817 128.44 104.555 128.44C104.063 128.44 103.629 128.366 103.252 128.218C102.875 128.062 102.559 127.845 102.305 127.567C102.051 127.28 101.858 126.94 101.727 126.546C101.596 126.153 101.531 125.71 101.531 125.218C101.531 124.702 101.6 124.243 101.74 123.841C101.887 123.44 102.096 123.104 102.367 122.833C102.637 122.563 102.965 122.358 103.35 122.219C103.735 122.071 104.166 121.997 104.641 121.997C104.985 121.997 105.325 122.042 105.662 122.133C105.998 122.223 106.293 122.395 106.547 122.649C106.809 122.895 107.01 123.239 107.149 123.682C107.288 124.116 107.338 124.682 107.297 125.378H102.539C102.539 126.116 102.735 126.669 103.129 127.038C103.531 127.399 104.063 127.579 104.727 127.579C104.948 127.579 105.166 127.554 105.379 127.505C105.6 127.448 105.809 127.382 106.006 127.308C106.202 127.235 106.375 127.153 106.522 127.063C106.678 126.972 106.797 126.89 106.879 126.817L107.26 127.517ZM104.666 122.809C104.395 122.809 104.137 122.837 103.891 122.895C103.653 122.952 103.44 123.05 103.252 123.19C103.072 123.321 102.92 123.497 102.797 123.718C102.682 123.932 102.608 124.198 102.576 124.518H106.399C106.358 123.977 106.182 123.559 105.871 123.264C105.567 122.96 105.166 122.809 104.666 122.809ZM109.271 124.296C109.271 124.223 109.267 124.128 109.259 124.014C109.259 123.891 109.255 123.768 109.247 123.645C109.239 123.514 109.226 123.387 109.21 123.264C109.202 123.141 109.189 123.034 109.173 122.944H108.349V122.145H109.997L110.107 123.141H110.169C110.251 123.001 110.357 122.866 110.488 122.735C110.628 122.596 110.788 122.473 110.968 122.366C111.148 122.251 111.349 122.161 111.57 122.096C111.792 122.03 112.025 121.997 112.271 121.997C112.648 121.997 112.98 122.038 113.267 122.12C113.562 122.202 113.804 122.35 113.992 122.563C114.189 122.768 114.337 123.05 114.435 123.411C114.533 123.764 114.582 124.214 114.582 124.764V128.292H113.623V124.948C113.623 124.268 113.513 123.755 113.292 123.411C113.07 123.067 112.669 122.895 112.087 122.895C111.874 122.895 111.665 122.94 111.46 123.03C111.263 123.112 111.083 123.223 110.919 123.362C110.755 123.501 110.611 123.665 110.488 123.854C110.365 124.034 110.275 124.227 110.218 124.432V128.292H109.271V124.296ZM115.881 122.145H117.344V120.928L118.303 120.657V122.145H121.585V122.969H118.303V125.87C118.303 126.468 118.446 126.911 118.733 127.198C119.028 127.485 119.446 127.628 119.987 127.628C120.356 127.628 120.676 127.558 120.946 127.419C121.225 127.28 121.475 127.128 121.696 126.964L122.016 127.69C121.729 127.919 121.385 128.103 120.983 128.243C120.59 128.382 120.184 128.452 119.766 128.452C119.438 128.452 119.127 128.403 118.832 128.304C118.545 128.214 118.291 128.071 118.069 127.874C117.848 127.677 117.672 127.427 117.541 127.124C117.409 126.813 117.344 126.444 117.344 126.018V122.969H115.881V122.145Z" fill="black"/>
<path d="M83.2693 209.921C83.0808 209.855 82.8759 209.802 82.6546 209.761C82.4415 209.712 82.2284 209.687 82.0153 209.687C81.212 209.687 80.6137 209.875 80.2203 210.253C79.8269 210.63 79.6302 211.228 79.6302 212.048C79.6302 212.408 79.6875 212.732 79.8023 213.019C79.917 213.297 80.081 213.535 80.2941 213.732C80.5072 213.929 80.7612 214.08 81.0563 214.187C81.3596 214.293 81.6915 214.347 82.0522 214.347C82.4374 214.347 82.8103 214.281 83.1709 214.15C83.5398 214.019 83.8471 213.847 84.093 213.633L84.5233 214.347C84.4086 214.445 84.2651 214.547 84.093 214.654C83.9209 214.76 83.7201 214.863 83.4906 214.961C83.2693 215.051 83.0193 215.125 82.7406 215.183C82.4702 215.24 82.1751 215.269 81.8554 215.269C81.3227 215.269 80.8514 215.195 80.4416 215.047C80.04 214.892 79.7039 214.674 79.4335 214.396C79.163 214.109 78.9581 213.769 78.8187 213.375C78.6794 212.974 78.6097 212.531 78.6097 212.048C78.6097 211.531 78.6794 211.072 78.8187 210.671C78.9663 210.269 79.1753 209.933 79.4458 209.662C79.7162 209.392 80.0441 209.187 80.4293 209.048C80.8145 208.9 81.2448 208.826 81.7202 208.826C82.3267 208.826 82.8185 208.88 83.1955 208.986C83.5808 209.093 83.9045 209.212 84.1668 209.343L84.1545 209.38V211.089H83.2693V209.921ZM86.5717 209.453C86.9241 209.248 87.3216 209.101 87.7642 209.011C88.2068 208.921 88.6412 208.876 89.0674 208.876C89.4855 208.876 89.8256 208.941 90.0879 209.072C90.3584 209.203 90.5674 209.376 90.7149 209.589C90.8706 209.794 90.9731 210.031 91.0222 210.302C91.0796 210.564 91.1083 210.83 91.1083 211.101C91.1083 211.412 91.1001 211.744 91.0837 212.097C91.0673 212.449 91.055 212.802 91.0468 213.154C91.0468 213.564 91.0714 213.953 91.1206 214.322H91.9443V215.121H90.3092L90.1985 214.199H90.1371C90.0879 214.273 90.0141 214.367 89.9158 214.482C89.8174 214.597 89.6863 214.711 89.5223 214.826C89.3666 214.933 89.174 215.027 88.9445 215.109C88.715 215.191 88.4445 215.232 88.1331 215.232C87.5265 215.232 87.0471 215.076 86.6946 214.765C86.3422 214.453 86.166 214.027 86.166 213.486C86.166 213.068 86.2561 212.72 86.4364 212.441C86.625 212.162 86.8913 211.949 87.2356 211.802C87.5798 211.654 87.9937 211.568 88.4773 211.543C88.9691 211.519 89.5182 211.552 90.1248 211.642C90.1657 211.265 90.1698 210.953 90.1371 210.707C90.1125 210.453 90.0469 210.253 89.9403 210.105C89.842 209.957 89.6986 209.855 89.51 209.798C89.3297 209.732 89.1043 209.699 88.8338 209.699C88.465 209.699 88.1126 209.753 87.7765 209.859C87.4405 209.957 87.1413 210.06 86.879 210.166L86.5717 209.453ZM88.379 214.408C88.6085 214.408 88.8216 214.371 89.0183 214.297C89.215 214.224 89.3871 214.129 89.5346 214.015C89.6822 213.9 89.8051 213.777 89.9035 213.646C90.0018 213.506 90.0756 213.375 90.1248 213.252V212.392C89.6986 212.318 89.3051 212.281 88.9445 212.281C88.5839 212.281 88.2724 212.322 88.0101 212.404C87.7478 212.478 87.5429 212.597 87.3954 212.761C87.2479 212.924 87.1741 213.138 87.1741 213.4C87.1741 213.67 87.2643 213.908 87.4446 214.113C87.6331 214.31 87.9446 214.408 88.379 214.408ZM95.8368 215.121V211.027C95.8368 210.855 95.8286 210.691 95.8122 210.535C95.8041 210.371 95.7754 210.228 95.7262 210.105C95.6852 209.974 95.6196 209.871 95.5295 209.798C95.4475 209.724 95.3369 209.687 95.1975 209.687C94.9189 209.687 94.6812 209.802 94.4845 210.031C94.2959 210.261 94.1525 210.548 94.0542 210.892V215.121H93.1198V208.974H93.7591L93.9435 209.724H93.9927C94.0746 209.601 94.1525 209.486 94.2263 209.38C94.3082 209.265 94.3984 209.167 94.4968 209.085C94.6033 209.003 94.7262 208.941 94.8656 208.9C95.0049 208.851 95.1811 208.826 95.3942 208.826C95.5172 208.826 95.6442 208.847 95.7754 208.888C95.9065 208.921 96.0254 208.978 96.1319 209.06C96.2467 209.134 96.345 209.236 96.427 209.367C96.5089 209.498 96.5622 209.658 96.5868 209.847C96.7753 209.527 96.9843 209.277 97.2138 209.097C97.4515 208.917 97.7753 208.826 98.1851 208.826C98.4555 208.826 98.6727 208.871 98.8367 208.962C99.0088 209.052 99.1399 209.183 99.2301 209.355C99.3284 209.519 99.394 209.72 99.4268 209.957C99.4678 210.187 99.4883 210.445 99.4883 210.732V215.121H98.5539V210.941C98.5539 210.769 98.5457 210.609 98.5293 210.462C98.5129 210.306 98.4801 210.171 98.431 210.056C98.39 209.941 98.3285 209.851 98.2465 209.785C98.1728 209.72 98.0703 209.687 97.9392 209.687C97.6523 209.687 97.4105 209.802 97.2138 210.031C97.0171 210.261 96.8696 210.589 96.7712 211.015V215.121H95.8368ZM101.168 211.125C101.168 211.052 101.164 210.957 101.155 210.843C101.155 210.72 101.151 210.597 101.143 210.474C101.135 210.343 101.123 210.216 101.106 210.093C101.098 209.97 101.086 209.863 101.069 209.773H100.246V208.974H101.881L102.004 209.835H102.065C102.287 209.548 102.565 209.31 102.901 209.121C103.246 208.925 103.664 208.826 104.155 208.826C105.032 208.826 105.692 209.068 106.135 209.552C106.577 210.035 106.799 210.826 106.799 211.925C106.799 212.441 106.721 212.908 106.565 213.326C106.417 213.736 106.204 214.084 105.926 214.371C105.647 214.658 105.311 214.879 104.918 215.035C104.524 215.191 104.09 215.269 103.614 215.269C103.442 215.269 103.287 215.26 103.147 215.244C103.016 215.236 102.893 215.219 102.778 215.195C102.672 215.178 102.565 215.154 102.459 215.121C102.352 215.088 102.237 215.047 102.114 214.998V217.58H101.168V211.125ZM103.995 209.724C103.75 209.724 103.516 209.769 103.295 209.859C103.082 209.949 102.889 210.068 102.717 210.216C102.553 210.363 102.418 210.527 102.311 210.707C102.205 210.888 102.139 211.068 102.114 211.248V214.051C102.295 214.174 102.496 214.273 102.717 214.347C102.946 214.412 103.246 214.445 103.614 214.445C104.27 214.445 104.795 214.232 105.188 213.806C105.581 213.371 105.778 212.74 105.778 211.912C105.778 211.216 105.639 210.679 105.36 210.302C105.09 209.916 104.635 209.724 103.995 209.724ZM108.687 209.453C109.04 209.248 109.437 209.101 109.88 209.011C110.322 208.921 110.757 208.876 111.183 208.876C111.601 208.876 111.941 208.941 112.203 209.072C112.474 209.203 112.683 209.376 112.83 209.589C112.986 209.794 113.089 210.031 113.138 210.302C113.195 210.564 113.224 210.83 113.224 211.101C113.224 211.412 113.216 211.744 113.199 212.097C113.183 212.449 113.17 212.802 113.162 213.154C113.162 213.564 113.187 213.953 113.236 214.322H114.06V215.121H112.425L112.314 214.199H112.253C112.203 214.273 112.13 214.367 112.031 214.482C111.933 214.597 111.802 214.711 111.638 214.826C111.482 214.933 111.289 215.027 111.06 215.109C110.83 215.191 110.56 215.232 110.249 215.232C109.642 215.232 109.163 215.076 108.81 214.765C108.458 214.453 108.281 214.027 108.281 213.486C108.281 213.068 108.372 212.72 108.552 212.441C108.74 212.162 109.007 211.949 109.351 211.802C109.695 211.654 110.109 211.568 110.593 211.543C111.085 211.519 111.634 211.552 112.24 211.642C112.281 211.265 112.285 210.953 112.253 210.707C112.228 210.453 112.162 210.253 112.056 210.105C111.957 209.957 111.814 209.855 111.626 209.798C111.445 209.732 111.22 209.699 110.949 209.699C110.58 209.699 110.228 209.753 109.892 209.859C109.556 209.957 109.257 210.06 108.995 210.166L108.687 209.453ZM110.494 214.408C110.724 214.408 110.937 214.371 111.134 214.297C111.33 214.224 111.503 214.129 111.65 214.015C111.798 213.9 111.921 213.777 112.019 213.646C112.117 213.506 112.191 213.375 112.24 213.252V212.392C111.814 212.318 111.421 212.281 111.06 212.281C110.699 212.281 110.388 212.322 110.126 212.404C109.863 212.478 109.658 212.597 109.511 212.761C109.363 212.924 109.29 213.138 109.29 213.4C109.29 213.67 109.38 213.908 109.56 214.113C109.749 214.31 110.06 214.408 110.494 214.408ZM116.022 215.121V214.297H118.161V209.798H116.022V208.974H119.145V214.297H121.235V215.121H116.022ZM117.829 207.228C117.829 207.007 117.903 206.818 118.051 206.663C118.198 206.499 118.387 206.417 118.616 206.417C118.854 206.417 119.051 206.499 119.206 206.663C119.37 206.818 119.452 207.007 119.452 207.228C119.452 207.441 119.37 207.622 119.206 207.769C119.051 207.917 118.854 207.99 118.616 207.99C118.387 207.99 118.198 207.917 118.051 207.769C117.903 207.622 117.829 207.441 117.829 207.228ZM128.545 215.428C128.545 215.814 128.471 216.15 128.324 216.437C128.176 216.732 127.972 216.973 127.709 217.162C127.455 217.35 127.156 217.49 126.812 217.58C126.467 217.678 126.095 217.728 125.693 217.728C125.209 217.728 124.787 217.678 124.427 217.58C124.066 217.482 123.755 217.355 123.492 217.199L123.959 216.326C124.033 216.392 124.127 216.453 124.242 216.51C124.365 216.576 124.504 216.633 124.66 216.682C124.816 216.74 124.98 216.785 125.152 216.818C125.332 216.851 125.509 216.867 125.681 216.867C126.041 216.867 126.34 216.834 126.578 216.769C126.824 216.703 127.021 216.601 127.168 216.461C127.316 216.322 127.422 216.142 127.488 215.92C127.554 215.699 127.586 215.428 127.586 215.109V214.42H127.537C127.349 214.691 127.107 214.9 126.812 215.047C126.517 215.195 126.136 215.269 125.668 215.269C124.734 215.269 124.046 215.01 123.603 214.494C123.169 213.97 122.951 213.158 122.951 212.06C122.951 211.011 123.23 210.22 123.787 209.687C124.345 209.146 125.172 208.876 126.271 208.876C126.779 208.876 127.209 208.912 127.562 208.986C127.922 209.052 128.25 209.138 128.545 209.244V215.428ZM125.804 214.445C126.304 214.445 126.697 214.318 126.984 214.064C127.271 213.801 127.472 213.404 127.586 212.871V209.957C127.226 209.785 126.722 209.699 126.074 209.699C125.418 209.699 124.902 209.892 124.525 210.277C124.148 210.662 123.959 211.252 123.959 212.048C123.959 212.4 123.992 212.724 124.058 213.019C124.123 213.306 124.226 213.556 124.365 213.769C124.513 213.982 124.701 214.15 124.931 214.273C125.168 214.388 125.459 214.445 125.804 214.445ZM130.618 211.125C130.618 211.052 130.614 210.957 130.606 210.843C130.606 210.72 130.602 210.597 130.594 210.474C130.585 210.343 130.573 210.216 130.557 210.093C130.549 209.97 130.536 209.863 130.52 209.773H129.696V208.974H131.344L131.454 209.97H131.516C131.598 209.83 131.704 209.695 131.835 209.564C131.975 209.425 132.134 209.302 132.315 209.195C132.495 209.08 132.696 208.99 132.917 208.925C133.139 208.859 133.372 208.826 133.618 208.826C133.995 208.826 134.327 208.867 134.614 208.949C134.909 209.031 135.151 209.179 135.339 209.392C135.536 209.597 135.683 209.88 135.782 210.24C135.88 210.593 135.929 211.043 135.929 211.593V215.121H134.97V211.777C134.97 211.097 134.86 210.584 134.638 210.24C134.417 209.896 134.016 209.724 133.434 209.724C133.221 209.724 133.011 209.769 132.807 209.859C132.61 209.941 132.43 210.052 132.266 210.191C132.102 210.33 131.958 210.494 131.835 210.683C131.712 210.863 131.622 211.056 131.565 211.261V215.121H130.618V211.125ZM144.6 208.974H146.063V207.757L147.022 207.486V208.974H150.304V209.798H147.022V212.699C147.022 213.297 147.165 213.74 147.452 214.027C147.747 214.314 148.165 214.457 148.706 214.457C149.075 214.457 149.394 214.388 149.665 214.248C149.944 214.109 150.194 213.957 150.415 213.793L150.734 214.519C150.448 214.748 150.103 214.933 149.702 215.072C149.308 215.211 148.903 215.281 148.485 215.281C148.157 215.281 147.845 215.232 147.55 215.133C147.263 215.043 147.009 214.9 146.788 214.703C146.567 214.506 146.39 214.256 146.259 213.953C146.128 213.642 146.063 213.273 146.063 212.847V209.798H144.6V208.974ZM152.881 215.121V214.297H155.02V209.798H152.881V208.974H156.004V214.297H158.094V215.121H152.881ZM154.688 207.228C154.688 207.007 154.762 206.818 154.91 206.663C155.057 206.499 155.246 206.417 155.475 206.417C155.713 206.417 155.91 206.499 156.065 206.663C156.229 206.818 156.311 207.007 156.311 207.228C156.311 207.441 156.229 207.622 156.065 207.769C155.91 207.917 155.713 207.99 155.475 207.99C155.246 207.99 155.057 207.917 154.91 207.769C154.762 207.622 154.688 207.441 154.688 207.228ZM159.343 208.974H160.806V207.757L161.765 207.486V208.974H165.048V209.798H161.765V212.699C161.765 213.297 161.909 213.74 162.196 214.027C162.491 214.314 162.909 214.457 163.45 214.457C163.818 214.457 164.138 214.388 164.409 214.248C164.687 214.109 164.937 213.957 165.158 213.793L165.478 214.519C165.191 214.748 164.847 214.933 164.445 215.072C164.052 215.211 163.646 215.281 163.228 215.281C162.9 215.281 162.589 215.232 162.294 215.133C162.007 215.043 161.753 214.9 161.532 214.703C161.31 214.506 161.134 214.256 161.003 213.953C160.872 213.642 160.806 213.273 160.806 212.847V209.798H159.343V208.974ZM167.195 206.515H169.235V213.056C169.235 213.556 169.317 213.908 169.481 214.113C169.653 214.318 169.903 214.42 170.231 214.42C170.461 214.42 170.694 214.375 170.932 214.285C171.17 214.195 171.387 214.068 171.584 213.904L172.026 214.556C171.895 214.67 171.752 214.773 171.596 214.863C171.44 214.953 171.28 215.031 171.116 215.097C170.953 215.154 170.789 215.199 170.625 215.232C170.461 215.265 170.309 215.281 170.17 215.281C169.867 215.281 169.596 215.24 169.358 215.158C169.121 215.084 168.92 214.961 168.756 214.789C168.6 214.617 168.481 214.392 168.399 214.113C168.317 213.826 168.276 213.474 168.276 213.056V207.339H167.195V206.515ZM180.209 214.347C180.062 214.478 179.886 214.601 179.681 214.715C179.484 214.83 179.267 214.928 179.029 215.01C178.792 215.092 178.542 215.154 178.279 215.195C178.025 215.244 177.767 215.269 177.505 215.269C177.013 215.269 176.579 215.195 176.201 215.047C175.824 214.892 175.509 214.674 175.255 214.396C175.001 214.109 174.808 213.769 174.677 213.375C174.546 212.982 174.48 212.539 174.48 212.048C174.48 211.531 174.55 211.072 174.689 210.671C174.837 210.269 175.046 209.933 175.316 209.662C175.587 209.392 175.915 209.187 176.3 209.048C176.685 208.9 177.115 208.826 177.591 208.826C177.935 208.826 178.275 208.871 178.611 208.962C178.947 209.052 179.242 209.224 179.496 209.478C179.759 209.724 179.959 210.068 180.099 210.511C180.238 210.945 180.287 211.511 180.246 212.207H175.488C175.488 212.945 175.685 213.498 176.079 213.867C176.48 214.228 177.013 214.408 177.677 214.408C177.898 214.408 178.115 214.383 178.328 214.334C178.55 214.277 178.759 214.211 178.955 214.138C179.152 214.064 179.324 213.982 179.472 213.892C179.628 213.801 179.746 213.72 179.828 213.646L180.209 214.347ZM177.615 209.638C177.345 209.638 177.087 209.666 176.841 209.724C176.603 209.781 176.39 209.88 176.201 210.019C176.021 210.15 175.87 210.326 175.747 210.548C175.632 210.761 175.558 211.027 175.525 211.347H179.349C179.308 210.806 179.132 210.388 178.82 210.093C178.517 209.789 178.115 209.638 177.615 209.638Z" fill="black"/>
<path opacity="0.5" d="M97.9271 159.268C98.1423 159.383 98.3825 159.48 98.6479 159.558C98.9204 159.63 99.1929 159.666 99.4654 159.666C99.7021 159.666 99.9244 159.645 100.132 159.601C100.34 159.551 100.52 159.476 100.67 159.376C100.828 159.268 100.95 159.135 101.036 158.978C101.129 158.82 101.176 158.633 101.176 158.418C101.176 158.124 101.075 157.884 100.875 157.697C100.681 157.511 100.437 157.346 100.143 157.203C99.8491 157.059 99.53 156.919 99.1857 156.783C98.8415 156.647 98.5224 156.485 98.2283 156.299C97.9343 156.112 97.6869 155.887 97.4861 155.621C97.2924 155.349 97.1956 155.004 97.1956 154.588C97.1956 154.294 97.253 154.029 97.3677 153.792C97.4896 153.556 97.6582 153.355 97.8733 153.19C98.0885 153.025 98.3467 152.9 98.6479 152.813C98.9563 152.72 99.2969 152.674 99.6698 152.674C100.1 152.674 100.491 152.706 100.842 152.77C101.194 152.828 101.474 152.907 101.682 153.007L101.703 152.996V153.018H101.714L101.703 153.05V154.771H100.907V153.62C100.728 153.577 100.53 153.541 100.315 153.513C100.1 153.484 99.8706 153.47 99.6268 153.47C99.3901 153.47 99.175 153.498 98.9814 153.556C98.7949 153.613 98.6335 153.692 98.4973 153.792C98.3682 153.886 98.2678 153.997 98.1961 154.126C98.1243 154.255 98.0885 154.391 98.0885 154.535C98.0885 154.814 98.1853 155.047 98.3789 155.234C98.5797 155.42 98.8272 155.589 99.1212 155.74C99.4152 155.883 99.7344 156.026 100.079 156.17C100.423 156.313 100.742 156.482 101.036 156.675C101.33 156.862 101.574 157.088 101.768 157.353C101.968 157.619 102.069 157.948 102.069 158.343C102.069 158.666 102.008 158.956 101.886 159.214C101.771 159.472 101.603 159.695 101.38 159.881C101.165 160.068 100.896 160.211 100.573 160.311C100.258 160.412 99.8993 160.462 99.4977 160.462C99.2252 160.462 98.967 160.441 98.7232 160.398C98.4793 160.355 98.2534 160.301 98.0454 160.236C97.8446 160.172 97.6618 160.104 97.4968 160.032C97.339 159.96 97.2135 159.899 97.1203 159.849L97.1311 159.817V158.074H97.9271V159.268ZM108.455 159.655C108.325 159.77 108.171 159.878 107.992 159.978C107.82 160.078 107.63 160.164 107.422 160.236C107.214 160.308 106.995 160.362 106.766 160.398C106.543 160.441 106.317 160.462 106.088 160.462C105.658 160.462 105.278 160.398 104.948 160.268C104.618 160.132 104.342 159.942 104.119 159.698C103.897 159.447 103.728 159.15 103.614 158.805C103.499 158.461 103.442 158.074 103.442 157.644C103.442 157.192 103.503 156.79 103.624 156.439C103.754 156.087 103.936 155.793 104.173 155.557C104.41 155.32 104.697 155.141 105.034 155.019C105.371 154.89 105.747 154.825 106.163 154.825C106.464 154.825 106.762 154.865 107.056 154.943C107.35 155.022 107.608 155.173 107.831 155.395C108.06 155.61 108.236 155.912 108.358 156.299C108.48 156.679 108.523 157.174 108.487 157.783H104.324C104.324 158.429 104.496 158.913 104.84 159.236C105.191 159.551 105.658 159.709 106.239 159.709C106.432 159.709 106.622 159.688 106.809 159.645C107.002 159.594 107.185 159.537 107.357 159.472C107.529 159.408 107.68 159.336 107.809 159.257C107.945 159.178 108.049 159.107 108.121 159.042L108.455 159.655ZM106.185 155.535C105.948 155.535 105.722 155.56 105.507 155.61C105.299 155.661 105.113 155.747 104.948 155.869C104.79 155.983 104.657 156.138 104.55 156.331C104.449 156.518 104.385 156.751 104.356 157.03H107.702C107.666 156.557 107.511 156.191 107.239 155.933C106.974 155.668 106.622 155.535 106.185 155.535ZM109.967 152.803H111.753V158.526C111.753 158.963 111.825 159.272 111.968 159.451C112.119 159.63 112.337 159.72 112.624 159.72C112.825 159.72 113.03 159.68 113.237 159.601C113.445 159.523 113.636 159.411 113.808 159.268L114.195 159.838C114.08 159.939 113.955 160.028 113.818 160.107C113.682 160.186 113.542 160.254 113.399 160.311C113.255 160.362 113.112 160.401 112.969 160.43C112.825 160.459 112.692 160.473 112.571 160.473C112.305 160.473 112.069 160.437 111.861 160.365C111.653 160.301 111.477 160.193 111.333 160.043C111.197 159.892 111.093 159.695 111.021 159.451C110.95 159.2 110.914 158.891 110.914 158.526V153.523H109.967V152.803ZM121.355 159.655C121.226 159.77 121.072 159.878 120.893 159.978C120.721 160.078 120.531 160.164 120.323 160.236C120.115 160.308 119.896 160.362 119.666 160.398C119.444 160.441 119.218 160.462 118.989 160.462C118.558 160.462 118.178 160.398 117.848 160.268C117.518 160.132 117.242 159.942 117.02 159.698C116.798 159.447 116.629 159.15 116.514 158.805C116.4 158.461 116.342 158.074 116.342 157.644C116.342 157.192 116.403 156.79 116.525 156.439C116.654 156.087 116.837 155.793 117.074 155.557C117.31 155.32 117.597 155.141 117.934 155.019C118.271 154.89 118.648 154.825 119.064 154.825C119.365 154.825 119.663 154.865 119.957 154.943C120.251 155.022 120.509 155.173 120.731 155.395C120.961 155.61 121.137 155.912 121.258 156.299C121.38 156.679 121.423 157.174 121.388 157.783H117.224C117.224 158.429 117.396 158.913 117.741 159.236C118.092 159.551 118.558 159.709 119.139 159.709C119.333 159.709 119.523 159.688 119.709 159.645C119.903 159.594 120.086 159.537 120.258 159.472C120.43 159.408 120.581 159.336 120.71 159.257C120.846 159.178 120.95 159.107 121.022 159.042L121.355 159.655ZM119.085 155.535C118.849 155.535 118.623 155.56 118.408 155.61C118.2 155.661 118.013 155.747 117.848 155.869C117.691 155.983 117.558 156.138 117.45 156.331C117.35 156.518 117.285 156.751 117.257 157.03H120.602C120.566 156.557 120.412 156.191 120.14 155.933C119.874 155.668 119.523 155.535 119.085 155.535ZM126.837 155.783C126.672 155.725 126.493 155.679 126.3 155.643C126.113 155.6 125.927 155.578 125.74 155.578C125.037 155.578 124.514 155.743 124.17 156.073C123.825 156.403 123.653 156.926 123.653 157.644C123.653 157.959 123.703 158.242 123.804 158.493C123.904 158.737 124.048 158.945 124.234 159.117C124.421 159.29 124.643 159.422 124.901 159.515C125.166 159.609 125.457 159.655 125.772 159.655C126.109 159.655 126.436 159.598 126.751 159.483C127.074 159.368 127.343 159.218 127.558 159.031L127.935 159.655C127.834 159.741 127.709 159.831 127.558 159.924C127.408 160.017 127.232 160.107 127.031 160.193C126.837 160.272 126.619 160.337 126.375 160.387C126.138 160.437 125.88 160.462 125.6 160.462C125.134 160.462 124.722 160.398 124.363 160.268C124.012 160.132 123.718 159.942 123.481 159.698C123.244 159.447 123.065 159.15 122.943 158.805C122.821 158.454 122.76 158.067 122.76 157.644C122.76 157.192 122.821 156.79 122.943 156.439C123.072 156.087 123.255 155.793 123.492 155.557C123.728 155.32 124.015 155.141 124.352 155.019C124.689 154.89 125.066 154.825 125.482 154.825C126.013 154.825 126.443 154.872 126.773 154.965C127.11 155.058 127.393 155.162 127.623 155.277L127.612 155.309V156.805H126.837V155.783ZM128.899 154.954H130.179V153.889L131.018 153.653V154.954H133.89V155.675H131.018V158.214C131.018 158.737 131.143 159.125 131.394 159.376C131.653 159.627 132.018 159.752 132.492 159.752C132.814 159.752 133.094 159.691 133.331 159.569C133.575 159.447 133.793 159.315 133.987 159.171L134.267 159.806C134.016 160.007 133.714 160.168 133.363 160.29C133.019 160.412 132.664 160.473 132.298 160.473C132.011 160.473 131.739 160.43 131.48 160.344C131.229 160.265 131.007 160.139 130.814 159.967C130.62 159.795 130.466 159.576 130.351 159.311C130.236 159.039 130.179 158.716 130.179 158.343V155.675H128.899V154.954Z" fill="black"/>
<g opacity="0.5">
<path d="M294.101 159.619L290.427 155.945C290.173 155.691 290.173 155.281 290.427 155.029L291.037 154.419C291.291 154.165 291.702 154.165 291.953 154.419L294.557 157.023L297.161 154.419C297.415 154.165 297.826 154.165 298.077 154.419L298.688 155.029C298.942 155.283 298.942 155.694 298.688 155.945L295.014 159.619C294.765 159.873 294.355 159.873 294.101 159.619Z" fill="black"/>
</g>
<rect x="78.0642" y="141.073" width="235.514" height="31.8885" rx="15.9443" stroke="black" stroke-opacity="0.5" stroke-width="0.384199"/>
<path opacity="0.35" d="M101.24 240.449C101.119 240.399 100.982 240.363 100.832 240.342C100.688 240.313 100.513 240.299 100.305 240.299C100.01 240.299 99.72 240.353 99.4332 240.46C99.1535 240.568 98.9025 240.743 98.6801 240.987C98.465 241.231 98.2893 241.55 98.153 241.945C98.0239 242.339 97.9594 242.823 97.9594 243.397C97.9594 243.913 98.0168 244.365 98.1315 244.752C98.2534 245.14 98.4184 245.462 98.6264 245.721C98.8415 245.979 99.0961 246.172 99.3901 246.302C99.6914 246.431 100.025 246.495 100.391 246.495C100.577 246.495 100.749 246.481 100.907 246.452C101.072 246.416 101.223 246.37 101.359 246.312V245.237H102.155V246.689L102.166 246.71C101.95 246.875 101.678 247.015 101.348 247.13C101.018 247.237 100.617 247.291 100.143 247.291C99.6914 247.291 99.2718 247.216 98.8845 247.065C98.5044 246.908 98.1745 246.671 97.8948 246.355C97.6151 246.04 97.3964 245.638 97.2386 245.15C97.088 244.656 97.0127 244.071 97.0127 243.397C97.0127 242.694 97.0988 242.099 97.2709 241.611C97.443 241.116 97.6761 240.715 97.9701 240.406C98.2642 240.091 98.6048 239.861 98.9921 239.718C99.3866 239.574 99.8061 239.503 100.251 239.503C100.495 239.503 100.706 239.513 100.885 239.535C101.065 239.549 101.223 239.574 101.359 239.61C101.495 239.639 101.613 239.678 101.714 239.729C101.821 239.779 101.925 239.836 102.026 239.901H102.037V241.6H101.24V240.449ZM103.926 242.203C104.234 242.024 104.582 241.894 104.969 241.816C105.356 241.737 105.736 241.697 106.109 241.697C106.475 241.697 106.773 241.755 107.002 241.869C107.239 241.984 107.422 242.135 107.551 242.321C107.687 242.5 107.777 242.708 107.82 242.945C107.87 243.175 107.895 243.408 107.895 243.644C107.895 243.917 107.888 244.207 107.874 244.516C107.859 244.824 107.849 245.133 107.841 245.441C107.841 245.799 107.863 246.14 107.906 246.463H108.627V247.162H107.196L107.099 246.355H107.045C107.002 246.42 106.938 246.502 106.852 246.603C106.766 246.703 106.651 246.804 106.507 246.904C106.371 246.997 106.203 247.08 106.002 247.151C105.801 247.223 105.564 247.259 105.292 247.259C104.761 247.259 104.342 247.123 104.033 246.85C103.725 246.578 103.571 246.205 103.571 245.731C103.571 245.366 103.65 245.061 103.807 244.817C103.972 244.573 104.205 244.387 104.507 244.258C104.808 244.128 105.17 244.053 105.593 244.032C106.023 244.01 106.504 244.039 107.035 244.118C107.07 243.788 107.074 243.515 107.045 243.3C107.024 243.078 106.966 242.902 106.873 242.773C106.787 242.644 106.662 242.554 106.497 242.504C106.339 242.447 106.142 242.418 105.905 242.418C105.582 242.418 105.274 242.465 104.98 242.558C104.686 242.644 104.424 242.734 104.195 242.827L103.926 242.203ZM105.507 246.538C105.708 246.538 105.894 246.506 106.066 246.441C106.239 246.377 106.389 246.294 106.518 246.194C106.647 246.094 106.755 245.986 106.841 245.871C106.927 245.749 106.992 245.635 107.035 245.527V244.774C106.662 244.709 106.317 244.677 106.002 244.677C105.686 244.677 105.414 244.713 105.184 244.785C104.955 244.849 104.775 244.953 104.646 245.097C104.517 245.24 104.453 245.427 104.453 245.656C104.453 245.893 104.532 246.101 104.689 246.28C104.854 246.452 105.127 246.538 105.507 246.538ZM112.033 247.162V243.58C112.033 243.429 112.025 243.286 112.011 243.15C112.004 243.006 111.979 242.881 111.936 242.773C111.9 242.658 111.843 242.569 111.764 242.504C111.692 242.44 111.595 242.407 111.473 242.407C111.229 242.407 111.021 242.508 110.849 242.708C110.684 242.909 110.559 243.16 110.473 243.462V247.162H109.655V241.783H110.215L110.376 242.44H110.419C110.491 242.332 110.559 242.232 110.623 242.138C110.695 242.038 110.774 241.952 110.86 241.88C110.953 241.808 111.061 241.755 111.183 241.719C111.305 241.676 111.459 241.654 111.645 241.654C111.753 241.654 111.864 241.672 111.979 241.708C112.094 241.737 112.198 241.787 112.291 241.859C112.391 241.923 112.477 242.013 112.549 242.128C112.621 242.242 112.667 242.382 112.689 242.547C112.854 242.267 113.037 242.049 113.237 241.891C113.445 241.733 113.729 241.654 114.087 241.654C114.324 241.654 114.514 241.694 114.657 241.773C114.808 241.851 114.923 241.966 115.002 242.117C115.088 242.26 115.145 242.436 115.174 242.644C115.21 242.845 115.228 243.071 115.228 243.322V247.162H114.41V243.505C114.41 243.354 114.403 243.214 114.389 243.085C114.374 242.949 114.346 242.83 114.302 242.73C114.267 242.63 114.213 242.551 114.141 242.493C114.077 242.436 113.987 242.407 113.872 242.407C113.621 242.407 113.41 242.508 113.237 242.708C113.065 242.909 112.936 243.196 112.85 243.569V247.162H112.033ZM116.697 243.666C116.697 243.601 116.694 243.519 116.686 243.418C116.686 243.311 116.683 243.203 116.676 243.096C116.669 242.981 116.658 242.87 116.643 242.762C116.636 242.655 116.626 242.561 116.611 242.483H115.89V241.783H117.321L117.429 242.536H117.483C117.676 242.285 117.92 242.077 118.214 241.912C118.515 241.74 118.881 241.654 119.311 241.654C120.079 241.654 120.656 241.866 121.043 242.289C121.431 242.712 121.624 243.404 121.624 244.365C121.624 244.817 121.556 245.226 121.42 245.592C121.291 245.95 121.104 246.255 120.86 246.506C120.617 246.757 120.323 246.951 119.978 247.087C119.634 247.223 119.254 247.291 118.838 247.291C118.687 247.291 118.551 247.284 118.429 247.27C118.314 247.263 118.207 247.248 118.106 247.227C118.013 247.212 117.92 247.191 117.827 247.162C117.734 247.133 117.633 247.098 117.526 247.055V249.314H116.697V243.666ZM119.171 242.44C118.956 242.44 118.752 242.479 118.558 242.558C118.372 242.637 118.203 242.741 118.053 242.87C117.909 242.999 117.791 243.142 117.698 243.3C117.604 243.458 117.547 243.616 117.526 243.773V246.226C117.683 246.334 117.859 246.42 118.053 246.484C118.253 246.542 118.515 246.57 118.838 246.57C119.412 246.57 119.871 246.384 120.215 246.011C120.559 245.631 120.731 245.079 120.731 244.354C120.731 243.745 120.609 243.275 120.366 242.945C120.129 242.608 119.731 242.44 119.171 242.44ZM123.277 242.203C123.585 242.024 123.933 241.894 124.32 241.816C124.707 241.737 125.088 241.697 125.46 241.697C125.826 241.697 126.124 241.755 126.353 241.869C126.59 241.984 126.773 242.135 126.902 242.321C127.038 242.5 127.128 242.708 127.171 242.945C127.221 243.175 127.246 243.408 127.246 243.644C127.246 243.917 127.239 244.207 127.225 244.516C127.21 244.824 127.2 245.133 127.192 245.441C127.192 245.799 127.214 246.14 127.257 246.463H127.978V247.162H126.547L126.45 246.355H126.396C126.353 246.42 126.289 246.502 126.203 246.603C126.117 246.703 126.002 246.804 125.858 246.904C125.722 246.997 125.554 247.08 125.353 247.151C125.152 247.223 124.915 247.259 124.643 247.259C124.112 247.259 123.693 247.123 123.384 246.85C123.076 246.578 122.922 246.205 122.922 245.731C122.922 245.366 123.001 245.061 123.158 244.817C123.323 244.573 123.556 244.387 123.858 244.258C124.159 244.128 124.521 244.053 124.944 244.032C125.374 244.01 125.855 244.039 126.386 244.118C126.421 243.788 126.425 243.515 126.396 243.3C126.375 243.078 126.317 242.902 126.224 242.773C126.138 242.644 126.013 242.554 125.848 242.504C125.69 242.447 125.493 242.418 125.256 242.418C124.933 242.418 124.625 242.465 124.331 242.558C124.037 242.644 123.775 242.734 123.546 242.827L123.277 242.203ZM124.858 246.538C125.059 246.538 125.245 246.506 125.417 246.441C125.59 246.377 125.74 246.294 125.869 246.194C125.998 246.094 126.106 245.986 126.192 245.871C126.278 245.749 126.343 245.635 126.386 245.527V244.774C126.013 244.709 125.668 244.677 125.353 244.677C125.037 244.677 124.765 244.713 124.535 244.785C124.306 244.849 124.127 244.953 123.997 245.097C123.868 245.24 123.804 245.427 123.804 245.656C123.804 245.893 123.883 246.101 124.04 246.28C124.205 246.452 124.478 246.538 124.858 246.538ZM129.695 247.162V246.441H131.567V242.504H129.695V241.783H132.427V246.441H134.256V247.162H129.695ZM131.276 240.256C131.276 240.062 131.341 239.897 131.47 239.761C131.599 239.617 131.764 239.546 131.965 239.546C132.173 239.546 132.345 239.617 132.481 239.761C132.624 239.897 132.696 240.062 132.696 240.256C132.696 240.442 132.624 240.6 132.481 240.729C132.345 240.858 132.173 240.923 131.965 240.923C131.764 240.923 131.599 240.858 131.47 240.729C131.341 240.6 131.276 240.442 131.276 240.256ZM140.653 247.431C140.653 247.768 140.588 248.062 140.459 248.313C140.33 248.571 140.15 248.783 139.921 248.948C139.699 249.113 139.437 249.235 139.136 249.314C138.834 249.4 138.508 249.443 138.157 249.443C137.734 249.443 137.364 249.4 137.049 249.314C136.733 249.228 136.461 249.116 136.231 248.98L136.64 248.216C136.704 248.274 136.787 248.328 136.887 248.378C136.995 248.435 137.117 248.485 137.253 248.528C137.389 248.579 137.533 248.618 137.683 248.647C137.841 248.675 137.995 248.69 138.146 248.69C138.462 248.69 138.723 248.661 138.931 248.604C139.146 248.546 139.319 248.457 139.448 248.335C139.577 248.213 139.67 248.055 139.727 247.861C139.785 247.668 139.813 247.431 139.813 247.151V246.549H139.77C139.605 246.786 139.394 246.968 139.136 247.098C138.878 247.227 138.544 247.291 138.135 247.291C137.318 247.291 136.715 247.065 136.328 246.613C135.948 246.154 135.758 245.444 135.758 244.483C135.758 243.565 136.002 242.873 136.489 242.407C136.977 241.934 137.701 241.697 138.662 241.697C139.107 241.697 139.484 241.73 139.792 241.794C140.107 241.851 140.394 241.927 140.653 242.02V247.431ZM138.254 246.57C138.691 246.57 139.035 246.459 139.286 246.237C139.537 246.007 139.713 245.66 139.813 245.193V242.644C139.498 242.493 139.057 242.418 138.49 242.418C137.916 242.418 137.465 242.587 137.135 242.924C136.805 243.261 136.64 243.777 136.64 244.473C136.64 244.781 136.669 245.064 136.726 245.323C136.783 245.574 136.873 245.792 136.995 245.979C137.124 246.165 137.289 246.312 137.49 246.42C137.698 246.52 137.952 246.57 138.254 246.57ZM142.466 243.666C142.466 243.601 142.463 243.519 142.456 243.418C142.456 243.311 142.452 243.203 142.445 243.096C142.438 242.981 142.427 242.87 142.413 242.762C142.405 242.655 142.395 242.561 142.38 242.483H141.66V241.783H143.101L143.198 242.655H143.252C143.323 242.533 143.417 242.414 143.531 242.3C143.653 242.178 143.793 242.07 143.951 241.977C144.109 241.877 144.284 241.798 144.478 241.74C144.672 241.683 144.876 241.654 145.091 241.654C145.421 241.654 145.712 241.69 145.963 241.762C146.221 241.834 146.432 241.963 146.597 242.149C146.769 242.328 146.898 242.576 146.985 242.891C147.071 243.2 147.114 243.594 147.114 244.075V247.162H146.275V244.236C146.275 243.641 146.178 243.193 145.984 242.891C145.79 242.59 145.439 242.44 144.93 242.44C144.743 242.44 144.56 242.479 144.381 242.558C144.209 242.63 144.051 242.726 143.908 242.848C143.764 242.97 143.639 243.114 143.531 243.279C143.424 243.436 143.345 243.605 143.295 243.784V247.162H142.466V243.666ZM155.367 243.666C155.367 243.601 155.363 243.519 155.356 243.418C155.356 243.311 155.353 243.203 155.346 243.096C155.338 242.981 155.328 242.87 155.313 242.762C155.306 242.655 155.295 242.561 155.281 242.483H154.56V241.783H156.002L156.099 242.655H156.152C156.224 242.533 156.317 242.414 156.432 242.3C156.554 242.178 156.694 242.07 156.852 241.977C157.009 241.877 157.185 241.798 157.379 241.74C157.572 241.683 157.777 241.654 157.992 241.654C158.322 241.654 158.612 241.69 158.863 241.762C159.121 241.834 159.333 241.963 159.498 242.149C159.67 242.328 159.799 242.576 159.885 242.891C159.971 243.2 160.014 243.594 160.014 244.075V247.162H159.175V244.236C159.175 243.641 159.078 243.193 158.885 242.891C158.691 242.59 158.34 242.44 157.831 242.44C157.644 242.44 157.461 242.479 157.282 242.558C157.11 242.63 156.952 242.726 156.809 242.848C156.665 242.97 156.54 243.114 156.432 243.279C156.324 243.436 156.246 243.605 156.195 243.784V247.162H155.367V243.666ZM161.979 242.203C162.287 242.024 162.635 241.894 163.022 241.816C163.409 241.737 163.79 241.697 164.163 241.697C164.528 241.697 164.826 241.755 165.055 241.869C165.292 241.984 165.475 242.135 165.604 242.321C165.74 242.5 165.83 242.708 165.873 242.945C165.923 243.175 165.948 243.408 165.948 243.644C165.948 243.917 165.941 244.207 165.927 244.516C165.912 244.824 165.902 245.133 165.894 245.441C165.894 245.799 165.916 246.14 165.959 246.463H166.68V247.162H165.249L165.152 246.355H165.098C165.055 246.42 164.991 246.502 164.905 246.603C164.819 246.703 164.704 246.804 164.561 246.904C164.424 246.997 164.256 247.08 164.055 247.151C163.854 247.223 163.617 247.259 163.345 247.259C162.814 247.259 162.395 247.123 162.086 246.85C161.778 246.578 161.624 246.205 161.624 245.731C161.624 245.366 161.703 245.061 161.86 244.817C162.025 244.573 162.258 244.387 162.56 244.258C162.861 244.128 163.223 244.053 163.646 244.032C164.076 244.01 164.557 244.039 165.088 244.118C165.124 243.788 165.127 243.515 165.098 243.3C165.077 243.078 165.02 242.902 164.926 242.773C164.84 242.644 164.715 242.554 164.55 242.504C164.392 242.447 164.195 242.418 163.958 242.418C163.635 242.418 163.327 242.465 163.033 242.558C162.739 242.644 162.477 242.734 162.248 242.827L161.979 242.203ZM163.56 246.538C163.761 246.538 163.947 246.506 164.119 246.441C164.292 246.377 164.442 246.294 164.571 246.194C164.7 246.094 164.808 245.986 164.894 245.871C164.98 245.749 165.045 245.635 165.088 245.527V244.774C164.715 244.709 164.37 244.677 164.055 244.677C163.739 244.677 163.467 244.713 163.237 244.785C163.008 244.849 162.829 244.953 162.699 245.097C162.57 245.24 162.506 245.427 162.506 245.656C162.506 245.893 162.585 246.101 162.743 246.28C162.907 246.452 163.18 246.538 163.56 246.538ZM170.086 247.162V243.58C170.086 243.429 170.079 243.286 170.064 243.15C170.057 243.006 170.032 242.881 169.989 242.773C169.953 242.658 169.896 242.569 169.817 242.504C169.745 242.44 169.648 242.407 169.526 242.407C169.283 242.407 169.075 242.508 168.902 242.708C168.737 242.909 168.612 243.16 168.526 243.462V247.162H167.708V241.783H168.268L168.429 242.44H168.472C168.544 242.332 168.612 242.232 168.677 242.138C168.748 242.038 168.827 241.952 168.913 241.88C169.006 241.808 169.114 241.755 169.236 241.719C169.358 241.676 169.512 241.654 169.698 241.654C169.806 241.654 169.917 241.672 170.032 241.708C170.147 241.737 170.251 241.787 170.344 241.859C170.444 241.923 170.53 242.013 170.602 242.128C170.674 242.242 170.72 242.382 170.742 242.547C170.907 242.267 171.09 242.049 171.291 241.891C171.499 241.733 171.782 241.654 172.14 241.654C172.377 241.654 172.567 241.694 172.711 241.773C172.861 241.851 172.976 241.966 173.055 242.117C173.141 242.26 173.198 242.436 173.227 242.644C173.263 242.845 173.281 243.071 173.281 243.322V247.162H172.463V243.505C172.463 243.354 172.456 243.214 172.442 243.085C172.427 242.949 172.399 242.83 172.356 242.73C172.32 242.63 172.266 242.551 172.194 242.493C172.13 242.436 172.04 242.407 171.925 242.407C171.674 242.407 171.463 242.508 171.291 242.708C171.118 242.909 170.989 243.196 170.903 243.569V247.162H170.086ZM179.408 246.484C179.279 246.599 179.125 246.707 178.946 246.807C178.774 246.908 178.584 246.994 178.376 247.065C178.168 247.137 177.949 247.191 177.719 247.227C177.497 247.27 177.271 247.291 177.042 247.291C176.611 247.291 176.231 247.227 175.901 247.098C175.571 246.961 175.295 246.771 175.073 246.527C174.851 246.276 174.682 245.979 174.567 245.635C174.453 245.29 174.395 244.903 174.395 244.473C174.395 244.021 174.456 243.619 174.578 243.268C174.707 242.916 174.89 242.622 175.127 242.386C175.364 242.149 175.65 241.97 175.987 241.848C176.325 241.719 176.701 241.654 177.117 241.654C177.418 241.654 177.716 241.694 178.01 241.773C178.304 241.851 178.562 242.002 178.784 242.224C179.014 242.44 179.19 242.741 179.312 243.128C179.433 243.508 179.476 244.003 179.441 244.613H175.277C175.277 245.258 175.45 245.742 175.794 246.065C176.145 246.38 176.611 246.538 177.192 246.538C177.386 246.538 177.576 246.517 177.762 246.474C177.956 246.423 178.139 246.366 178.311 246.302C178.483 246.237 178.634 246.165 178.763 246.086C178.899 246.007 179.003 245.936 179.075 245.871L179.408 246.484ZM177.139 242.364C176.902 242.364 176.676 242.389 176.461 242.44C176.253 242.49 176.066 242.576 175.901 242.698C175.744 242.812 175.611 242.967 175.503 243.16C175.403 243.347 175.338 243.58 175.31 243.86H178.655C178.619 243.386 178.465 243.02 178.193 242.762C177.927 242.497 177.576 242.364 177.139 242.364Z" fill="black"/>
<rect x="78.8327" y="227.902" width="235.514" height="31.8885" rx="15.9443" stroke="black" stroke-opacity="0.5" stroke-width="0.384199"/>
<g clip-path="url(#clip1_123_88)">
<rect x="107.071" y="322.223" width="182.11" height="34.5779" rx="17.289" fill="#FACEBC" fill-opacity="0.7"/>
<path d="M151.921 338.022C151.732 337.957 151.528 337.903 151.306 337.862C151.093 337.813 150.88 337.789 150.667 337.789C149.864 337.789 149.265 337.977 148.872 338.354C148.479 338.731 148.282 339.329 148.282 340.149C148.282 340.51 148.339 340.833 148.454 341.12C148.569 341.399 148.733 341.637 148.946 341.833C149.159 342.03 149.413 342.182 149.708 342.288C150.011 342.395 150.343 342.448 150.704 342.448C151.089 342.448 151.462 342.383 151.823 342.251C152.191 342.12 152.499 341.948 152.745 341.735L153.175 342.448C153.06 342.546 152.917 342.649 152.745 342.755C152.573 342.862 152.372 342.964 152.142 343.063C151.921 343.153 151.671 343.227 151.392 343.284C151.122 343.342 150.827 343.37 150.507 343.37C149.974 343.37 149.503 343.296 149.093 343.149C148.692 342.993 148.356 342.776 148.085 342.497C147.815 342.21 147.61 341.87 147.47 341.477C147.331 341.075 147.261 340.633 147.261 340.149C147.261 339.633 147.331 339.174 147.47 338.772C147.618 338.37 147.827 338.034 148.097 337.764C148.368 337.493 148.696 337.289 149.081 337.149C149.466 337.002 149.896 336.928 150.372 336.928C150.978 336.928 151.47 336.981 151.847 337.088C152.232 337.194 152.556 337.313 152.818 337.444L152.806 337.481V339.19H151.921V338.022ZM154.707 343.223V342.399H156.367V337.899H154.707V337.075H157.006L157.203 337.875H157.264C157.543 337.621 157.854 337.403 158.199 337.223C158.543 337.043 158.953 336.953 159.428 336.953C159.707 336.953 159.928 337.006 160.092 337.112C160.264 337.219 160.395 337.375 160.485 337.58C160.584 337.784 160.649 338.034 160.682 338.329C160.715 338.616 160.731 338.944 160.731 339.313L159.871 339.325C159.871 338.801 159.817 338.416 159.711 338.17C159.612 337.924 159.428 337.801 159.158 337.801C158.903 337.801 158.674 337.838 158.469 337.911C158.264 337.985 158.084 338.075 157.928 338.182C157.781 338.289 157.654 338.395 157.547 338.502C157.44 338.608 157.363 338.698 157.313 338.772V342.399H159.674V343.223H154.707ZM167.771 342.448C167.624 342.579 167.447 342.702 167.242 342.817C167.046 342.932 166.829 343.03 166.591 343.112C166.353 343.194 166.103 343.255 165.841 343.296C165.587 343.346 165.329 343.37 165.066 343.37C164.575 343.37 164.14 343.296 163.763 343.149C163.386 342.993 163.071 342.776 162.816 342.497C162.562 342.21 162.37 341.87 162.239 341.477C162.107 341.083 162.042 340.641 162.042 340.149C162.042 339.633 162.112 339.174 162.251 338.772C162.398 338.37 162.607 338.034 162.878 337.764C163.148 337.493 163.476 337.289 163.861 337.149C164.247 337.002 164.677 336.928 165.152 336.928C165.497 336.928 165.837 336.973 166.173 337.063C166.509 337.153 166.804 337.325 167.058 337.58C167.32 337.825 167.521 338.17 167.66 338.612C167.8 339.047 167.849 339.612 167.808 340.309H163.05C163.05 341.047 163.247 341.6 163.64 341.969C164.042 342.329 164.575 342.51 165.238 342.51C165.46 342.51 165.677 342.485 165.89 342.436C166.111 342.378 166.32 342.313 166.517 342.239C166.714 342.165 166.886 342.083 167.033 341.993C167.189 341.903 167.308 341.821 167.39 341.747L167.771 342.448ZM165.177 337.739C164.907 337.739 164.648 337.768 164.402 337.825C164.165 337.883 163.952 337.981 163.763 338.12C163.583 338.252 163.431 338.428 163.308 338.649C163.194 338.862 163.12 339.129 163.087 339.448H166.911C166.87 338.907 166.693 338.489 166.382 338.194C166.079 337.891 165.677 337.739 165.177 337.739ZM169.967 337.555C170.319 337.35 170.717 337.203 171.16 337.112C171.602 337.022 172.037 336.977 172.463 336.977C172.881 336.977 173.221 337.043 173.483 337.174C173.754 337.305 173.963 337.477 174.11 337.69C174.266 337.895 174.368 338.133 174.418 338.403C174.475 338.666 174.504 338.932 174.504 339.202C174.504 339.514 174.495 339.846 174.479 340.198C174.463 340.551 174.45 340.903 174.442 341.256C174.442 341.665 174.467 342.055 174.516 342.424H175.34V343.223H173.704L173.594 342.301H173.532C173.483 342.374 173.409 342.469 173.311 342.583C173.213 342.698 173.082 342.813 172.918 342.928C172.762 343.034 172.569 343.128 172.34 343.21C172.11 343.292 171.84 343.333 171.528 343.333C170.922 343.333 170.442 343.178 170.09 342.866C169.738 342.555 169.561 342.128 169.561 341.588C169.561 341.169 169.651 340.821 169.832 340.542C170.02 340.264 170.287 340.051 170.631 339.903C170.975 339.756 171.389 339.67 171.873 339.645C172.364 339.62 172.914 339.653 173.52 339.743C173.561 339.366 173.565 339.055 173.532 338.809C173.508 338.555 173.442 338.354 173.336 338.207C173.237 338.059 173.094 337.957 172.905 337.899C172.725 337.834 172.5 337.801 172.229 337.801C171.86 337.801 171.508 337.854 171.172 337.961C170.836 338.059 170.537 338.161 170.274 338.268L169.967 337.555ZM171.774 342.51C172.004 342.51 172.217 342.473 172.414 342.399C172.61 342.325 172.782 342.231 172.93 342.116C173.077 342.001 173.2 341.878 173.299 341.747C173.397 341.608 173.471 341.477 173.52 341.354V340.493C173.094 340.42 172.7 340.383 172.34 340.383C171.979 340.383 171.668 340.424 171.405 340.506C171.143 340.579 170.938 340.698 170.791 340.862C170.643 341.026 170.569 341.239 170.569 341.501C170.569 341.772 170.66 342.01 170.84 342.215C171.028 342.411 171.34 342.51 171.774 342.51ZM176.392 337.075H177.855V335.858L178.814 335.588V337.075H182.097V337.899H178.814V340.801C178.814 341.399 178.958 341.842 179.244 342.128C179.54 342.415 179.958 342.559 180.498 342.559C180.867 342.559 181.187 342.489 181.457 342.35C181.736 342.21 181.986 342.059 182.207 341.895L182.527 342.62C182.24 342.85 181.896 343.034 181.494 343.173C181.101 343.313 180.695 343.382 180.277 343.382C179.949 343.382 179.638 343.333 179.343 343.235C179.056 343.145 178.802 343.001 178.581 342.805C178.359 342.608 178.183 342.358 178.052 342.055C177.921 341.743 177.855 341.374 177.855 340.948V337.899H176.392V337.075ZM189.887 342.448C189.739 342.579 189.563 342.702 189.358 342.817C189.161 342.932 188.944 343.03 188.706 343.112C188.469 343.194 188.219 343.255 187.956 343.296C187.702 343.346 187.444 343.37 187.182 343.37C186.69 343.37 186.256 343.296 185.879 343.149C185.502 342.993 185.186 342.776 184.932 342.497C184.678 342.21 184.485 341.87 184.354 341.477C184.223 341.083 184.157 340.641 184.157 340.149C184.157 339.633 184.227 339.174 184.366 338.772C184.514 338.37 184.723 338.034 184.993 337.764C185.264 337.493 185.592 337.289 185.977 337.149C186.362 337.002 186.792 336.928 187.268 336.928C187.612 336.928 187.952 336.973 188.288 337.063C188.624 337.153 188.919 337.325 189.173 337.58C189.436 337.825 189.637 338.17 189.776 338.612C189.915 339.047 189.964 339.612 189.923 340.309H185.166C185.166 341.047 185.362 341.6 185.756 341.969C186.157 342.329 186.69 342.51 187.354 342.51C187.575 342.51 187.792 342.485 188.006 342.436C188.227 342.378 188.436 342.313 188.633 342.239C188.829 342.165 189.001 342.083 189.149 341.993C189.305 341.903 189.423 341.821 189.505 341.747L189.887 342.448ZM187.292 337.739C187.022 337.739 186.764 337.768 186.518 337.825C186.28 337.883 186.067 337.981 185.879 338.12C185.698 338.252 185.547 338.428 185.424 338.649C185.309 338.862 185.235 339.129 185.202 339.448H189.026C188.985 338.907 188.809 338.489 188.497 338.194C188.194 337.891 187.792 337.739 187.292 337.739ZM199.307 339.227C199.307 339.153 199.303 339.059 199.294 338.944C199.294 338.821 199.29 338.698 199.282 338.575C199.274 338.444 199.262 338.317 199.245 338.194C199.237 338.071 199.225 337.965 199.208 337.875H198.385V337.075H200.02L200.143 337.936H200.204C200.426 337.649 200.704 337.412 201.04 337.223C201.384 337.026 201.803 336.928 202.294 336.928C203.171 336.928 203.831 337.17 204.274 337.653C204.716 338.137 204.938 338.928 204.938 340.026C204.938 340.542 204.86 341.01 204.704 341.428C204.556 341.837 204.343 342.186 204.065 342.473C203.786 342.76 203.45 342.981 203.057 343.137C202.663 343.292 202.229 343.37 201.753 343.37C201.581 343.37 201.425 343.362 201.286 343.346C201.155 343.337 201.032 343.321 200.917 343.296C200.811 343.28 200.704 343.255 200.598 343.223C200.491 343.19 200.376 343.149 200.253 343.1V345.682H199.307V339.227ZM202.134 337.825C201.889 337.825 201.655 337.871 201.434 337.961C201.221 338.051 201.028 338.17 200.856 338.317C200.692 338.465 200.557 338.629 200.45 338.809C200.344 338.989 200.278 339.17 200.253 339.35V342.153C200.434 342.276 200.635 342.374 200.856 342.448C201.085 342.514 201.384 342.546 201.753 342.546C202.409 342.546 202.934 342.333 203.327 341.907C203.72 341.473 203.917 340.842 203.917 340.014C203.917 339.317 203.778 338.78 203.499 338.403C203.229 338.018 202.774 337.825 202.134 337.825ZM206.31 343.223V342.399H207.969V337.899H206.31V337.075H208.609L208.805 337.875H208.867C209.146 337.621 209.457 337.403 209.801 337.223C210.146 337.043 210.555 336.953 211.031 336.953C211.309 336.953 211.531 337.006 211.695 337.112C211.867 337.219 211.998 337.375 212.088 337.58C212.186 337.784 212.252 338.034 212.285 338.329C212.318 338.616 212.334 338.944 212.334 339.313L211.473 339.325C211.473 338.801 211.42 338.416 211.314 338.17C211.215 337.924 211.031 337.801 210.76 337.801C210.506 337.801 210.277 337.838 210.072 337.911C209.867 337.985 209.687 338.075 209.531 338.182C209.383 338.289 209.256 338.395 209.15 338.502C209.043 338.608 208.965 338.698 208.916 338.772V342.399H211.277V343.223H206.31ZM213.571 340.149C213.571 339.157 213.829 338.375 214.345 337.801C214.862 337.219 215.599 336.928 216.558 336.928C217.075 336.928 217.517 337.014 217.886 337.186C218.263 337.35 218.575 337.575 218.821 337.862C219.066 338.149 219.247 338.489 219.362 338.883C219.485 339.276 219.546 339.698 219.546 340.149C219.546 340.641 219.48 341.088 219.349 341.489C219.218 341.883 219.026 342.219 218.771 342.497C218.517 342.776 218.202 342.993 217.825 343.149C217.456 343.296 217.034 343.37 216.558 343.37C216.05 343.37 215.608 343.288 215.231 343.124C214.854 342.952 214.542 342.723 214.296 342.436C214.05 342.149 213.866 341.809 213.743 341.415C213.628 341.022 213.571 340.6 213.571 340.149ZM214.591 340.149C214.591 340.436 214.624 340.723 214.69 341.01C214.763 341.297 214.878 341.555 215.034 341.784C215.19 342.014 215.39 342.198 215.636 342.337C215.89 342.477 216.198 342.546 216.558 342.546C217.214 342.546 217.706 342.346 218.034 341.944C218.37 341.534 218.538 340.936 218.538 340.149C218.538 339.854 218.501 339.567 218.427 339.288C218.362 339.002 218.247 338.743 218.083 338.514C217.927 338.284 217.722 338.1 217.468 337.961C217.222 337.821 216.919 337.752 216.558 337.752C215.903 337.752 215.411 337.952 215.083 338.354C214.755 338.756 214.591 339.354 214.591 340.149ZM224.373 337.899H221.398V337.075H225.356V343.37C225.356 344.198 225.143 344.813 224.717 345.214C224.299 345.624 223.717 345.829 222.971 345.829C222.75 345.829 222.533 345.8 222.32 345.743C222.115 345.686 221.922 345.616 221.742 345.534C221.562 345.46 221.402 345.382 221.262 345.3C221.131 345.218 221.033 345.153 220.967 345.104L221.373 344.305C221.594 344.468 221.844 344.612 222.123 344.735C222.41 344.858 222.705 344.919 223.008 344.919C223.5 344.919 223.848 344.764 224.053 344.452C224.266 344.149 224.373 343.727 224.373 343.186V337.899ZM223.856 335.33C223.856 335.108 223.93 334.92 224.078 334.764C224.225 334.6 224.414 334.518 224.643 334.518C224.881 334.518 225.078 334.6 225.233 334.764C225.397 334.92 225.479 335.108 225.479 335.33C225.479 335.543 225.397 335.723 225.233 335.871C225.078 336.018 224.881 336.092 224.643 336.092C224.414 336.092 224.225 336.018 224.078 335.871C223.93 335.723 223.856 335.543 223.856 335.33ZM234.117 342.448C233.97 342.579 233.794 342.702 233.589 342.817C233.392 342.932 233.175 343.03 232.937 343.112C232.7 343.194 232.45 343.255 232.187 343.296C231.933 343.346 231.675 343.37 231.413 343.37C230.921 343.37 230.487 343.296 230.11 343.149C229.732 342.993 229.417 342.776 229.163 342.497C228.909 342.21 228.716 341.87 228.585 341.477C228.454 341.083 228.388 340.641 228.388 340.149C228.388 339.633 228.458 339.174 228.597 338.772C228.745 338.37 228.954 338.034 229.224 337.764C229.495 337.493 229.823 337.289 230.208 337.149C230.593 337.002 231.023 336.928 231.499 336.928C231.843 336.928 232.183 336.973 232.519 337.063C232.855 337.153 233.15 337.325 233.404 337.58C233.667 337.825 233.868 338.17 234.007 338.612C234.146 339.047 234.195 339.612 234.154 340.309H229.396C229.396 341.047 229.593 341.6 229.987 341.969C230.388 342.329 230.921 342.51 231.585 342.51C231.806 342.51 232.023 342.485 232.236 342.436C232.458 342.378 232.667 342.313 232.863 342.239C233.06 342.165 233.232 342.083 233.38 341.993C233.536 341.903 233.654 341.821 233.736 341.747L234.117 342.448ZM231.523 337.739C231.253 337.739 230.995 337.768 230.749 337.825C230.511 337.883 230.298 337.981 230.11 338.12C229.929 338.252 229.778 338.428 229.655 338.649C229.54 338.862 229.466 339.129 229.433 339.448H233.257C233.216 338.907 233.04 338.489 232.728 338.194C232.425 337.891 232.023 337.739 231.523 337.739ZM240.383 338.022C240.194 337.957 239.989 337.903 239.768 337.862C239.555 337.813 239.342 337.789 239.129 337.789C238.326 337.789 237.727 337.977 237.334 338.354C236.94 338.731 236.744 339.329 236.744 340.149C236.744 340.51 236.801 340.833 236.916 341.12C237.031 341.399 237.194 341.637 237.408 341.833C237.621 342.03 237.875 342.182 238.17 342.288C238.473 342.395 238.805 342.448 239.166 342.448C239.551 342.448 239.924 342.383 240.284 342.251C240.653 342.12 240.961 341.948 241.207 341.735L241.637 342.448C241.522 342.546 241.379 342.649 241.207 342.755C241.034 342.862 240.834 342.964 240.604 343.063C240.383 343.153 240.133 343.227 239.854 343.284C239.584 343.342 239.289 343.37 238.969 343.37C238.436 343.37 237.965 343.296 237.555 343.149C237.154 342.993 236.817 342.776 236.547 342.497C236.277 342.21 236.072 341.87 235.932 341.477C235.793 341.075 235.723 340.633 235.723 340.149C235.723 339.633 235.793 339.174 235.932 338.772C236.08 338.37 236.289 338.034 236.559 337.764C236.83 337.493 237.158 337.289 237.543 337.149C237.928 337.002 238.358 336.928 238.834 336.928C239.44 336.928 239.932 336.981 240.309 337.088C240.694 337.194 241.018 337.313 241.28 337.444L241.268 337.481V339.19H240.383V338.022ZM242.739 337.075H244.202V335.858L245.161 335.588V337.075H248.443V337.899H245.161V340.801C245.161 341.399 245.304 341.842 245.591 342.128C245.886 342.415 246.304 342.559 246.845 342.559C247.214 342.559 247.533 342.489 247.804 342.35C248.082 342.21 248.332 342.059 248.554 341.895L248.873 342.62C248.587 342.85 248.242 343.034 247.841 343.173C247.447 343.313 247.042 343.382 246.624 343.382C246.296 343.382 245.984 343.333 245.689 343.235C245.402 343.145 245.148 343.001 244.927 342.805C244.706 342.608 244.529 342.358 244.398 342.055C244.267 341.743 244.202 341.374 244.202 340.948V337.899H242.739V337.075Z" fill="black"/>
</g>
<line x1="41.7559" y1="296.674" x2="350.656" y2="296.674" stroke="black" stroke-opacity="0.2" stroke-width="0.384199"/>
</g>
<rect x="31.5" y="31.5" width="333.253" height="354" rx="11.7944" stroke="black" stroke-opacity="0.19" shape-rendering="crispEdges"/>
</g>
<defs>
<filter id="filter0_d_123_88" x="0" y="0" width="396.253" height="417" filterUnits="userSpaceOnUse" color-interpolation-filters="sRGB">
<feFlood flood-opacity="0" result="BackgroundImageFix"/>
<feColorMatrix in="SourceAlpha" type="matrix" values="0 0 0 0 0 0 0 0 0 0 0 0 0 0 0 0 0 0 127 0" result="hardAlpha"/>
<feOffset/>
<feGaussianBlur stdDeviation="15.5"/>
<feComposite in2="hardAlpha" operator="out"/>
<feColorMatrix type="matrix" values="0 0 0 0 0 0 0 0 0 0 0 0 0 0 0 0 0 0 0.06 0"/>
<feBlend mode="normal" in2="BackgroundImageFix" result="effect1_dropShadow_123_88"/>
<feBlend mode="normal" in="SourceGraphic" in2="effect1_dropShadow_123_88" result="shape"/>
</filter>
<clipPath id="clip0_123_88">
<rect x="31" y="31" width="334.253" height="355" rx="12.2944" fill="white"/>
</clipPath>
<clipPath id="clip1_123_88">
<rect x="107.071" y="322.223" width="182.11" height="34.5779" rx="17.289" fill="white"/>
</clipPath>
</defs>
</svg>
