<svg width="149" height="24" viewBox="0 0 149 24" fill="none" xmlns="http://www.w3.org/2000/svg">
<path d="M11.7139 12.4934H16.1384C16.0747 11.4324 15.8201 10.5199 15.3744 9.75596C14.9288 8.97079 14.3452 8.32356 13.6237 7.81426C12.9234 7.28374 12.1171 6.89116 11.2046 6.63651C10.3133 6.38186 9.37957 6.25454 8.40342 6.25454C7.06651 6.25454 5.87815 6.47736 4.83833 6.92299C3.79852 7.36863 2.91785 7.99464 2.19635 8.80103C1.47484 9.58619 0.923103 10.5305 0.54113 11.634C0.180377 12.7163 0 13.894 0 15.1673C0 16.3981 0.201602 17.5334 0.604796 18.5732C1.00799 19.5918 1.57034 20.4724 2.29185 21.2152C3.01335 21.9579 3.8834 22.5415 4.90199 22.9659C5.94181 23.3691 7.07712 23.5707 8.30792 23.5707C10.4937 23.5707 12.2868 22.9977 13.6874 21.8518C15.088 20.7059 15.9368 19.04 16.2339 16.8543H11.873C11.7245 17.8729 11.3531 18.6899 10.7589 19.3053C10.186 19.8995 9.35835 20.1966 8.27609 20.1966C7.57581 20.1966 6.98163 20.0374 6.49355 19.7191C6.00548 19.4008 5.61289 18.9976 5.3158 18.5095C5.03993 18.0002 4.83833 17.4379 4.71101 16.8225C4.58368 16.2071 4.52002 15.6023 4.52002 15.0081C4.52002 14.3927 4.58368 13.7773 4.71101 13.1619C4.83833 12.5253 5.05054 11.9523 5.34763 11.443C5.66594 10.9125 6.06914 10.4881 6.55721 10.1698C7.04529 9.83023 7.65008 9.66047 8.37159 9.66047C10.3027 9.66047 11.4168 10.6048 11.7139 12.4934Z" fill="#FCE0CF"/>
<path d="M22.798 14.9444C22.798 14.2866 22.8617 13.6394 22.989 13.0027C23.1164 12.3661 23.3286 11.8038 23.6257 11.3157C23.944 10.8276 24.3578 10.435 24.8671 10.1379C25.3764 9.81962 26.013 9.66047 26.7769 9.66047C27.5409 9.66047 28.1775 9.81962 28.6868 10.1379C29.2173 10.435 29.6311 10.8276 29.9282 11.3157C30.2465 11.8038 30.4693 12.3661 30.5967 13.0027C30.724 13.6394 30.7877 14.2866 30.7877 14.9444C30.7877 15.6023 30.724 16.2495 30.5967 16.8861C30.4693 17.5015 30.2465 18.0639 29.9282 18.5732C29.6311 19.0613 29.2173 19.4538 28.6868 19.7509C28.1775 20.048 27.5409 20.1966 26.7769 20.1966C26.013 20.1966 25.3764 20.048 24.8671 19.7509C24.3578 19.4538 23.944 19.0613 23.6257 18.5732C23.3286 18.0639 23.1164 17.5015 22.989 16.8861C22.8617 16.2495 22.798 15.6023 22.798 14.9444ZM18.278 14.9444C18.278 16.2601 18.4796 17.4485 18.8828 18.5095C19.286 19.5706 19.859 20.483 20.6017 21.247C21.3444 21.9897 22.2357 22.5627 23.2755 22.9659C24.3153 23.3691 25.4825 23.5707 26.7769 23.5707C28.0714 23.5707 29.2385 23.3691 30.2784 22.9659C31.3394 22.5627 32.2413 21.9897 32.984 21.247C33.7267 20.483 34.2997 19.5706 34.7029 18.5095C35.1061 17.4485 35.3077 16.2601 35.3077 14.9444C35.3077 13.6287 35.1061 12.4404 34.7029 11.3793C34.2997 10.2971 33.7267 9.3846 32.984 8.64187C32.2413 7.87792 31.3394 7.29435 30.2784 6.89116C29.2385 6.46675 28.0714 6.25454 26.7769 6.25454C25.4825 6.25454 24.3153 6.46675 23.2755 6.89116C22.2357 7.29435 21.3444 7.87792 20.6017 8.64187C19.859 9.3846 19.286 10.2971 18.8828 11.3793C18.4796 12.4404 18.278 13.6287 18.278 14.9444Z" fill="#FCE0CF"/>
<path d="M49.9286 14.8808C49.9286 15.5598 49.8649 16.2177 49.7376 16.8543C49.6103 17.4909 49.3981 18.0639 49.101 18.5732C48.8039 19.0613 48.4007 19.4538 47.8914 19.7509C47.4033 20.048 46.7879 20.1966 46.0452 20.1966C45.3449 20.1966 44.7401 20.048 44.2308 19.7509C43.7428 19.4326 43.329 19.0294 42.9894 18.5414C42.6711 18.0321 42.4377 17.4591 42.2891 16.8225C42.1406 16.1858 42.0663 15.5492 42.0663 14.9126C42.0663 14.2335 42.13 13.5863 42.2573 12.9709C42.4058 12.3343 42.6287 11.7719 42.9258 11.2839C43.2441 10.7958 43.6579 10.4032 44.1672 10.1061C44.6765 9.80901 45.3025 9.66047 46.0452 9.66047C46.7879 9.66047 47.4033 9.80901 47.8914 10.1061C48.3795 10.4032 48.7721 10.7958 49.0692 11.2839C49.3875 11.7507 49.6103 12.3025 49.7376 12.9391C49.8649 13.5545 49.9286 14.2017 49.9286 14.8808ZM49.9923 21.056V23.1569H54.2895V0.429443H49.7694V8.70553H49.7058C49.1965 7.89915 48.4962 7.29435 47.6049 6.89116C46.7349 6.46675 45.8118 6.25454 44.8356 6.25454C43.626 6.25454 42.565 6.49858 41.6525 6.98665C40.74 7.45351 39.9761 8.07952 39.3607 8.86469C38.7665 9.64986 38.3102 10.5623 37.9919 11.6022C37.6948 12.6208 37.5463 13.6818 37.5463 14.7853C37.5463 15.9312 37.6948 17.0347 37.9919 18.0957C38.3102 19.1567 38.7665 20.1011 39.3607 20.9287C39.9761 21.7351 40.7506 22.3823 41.6843 22.8704C42.6181 23.3372 43.7003 23.5707 44.9311 23.5707C46.0134 23.5707 46.9789 23.3797 47.8277 22.9977C48.6978 22.5945 49.3981 21.9473 49.9286 21.056H49.9923Z" fill="#FCE0CF"/>
<path d="M68.7831 13.1619H61.4301C61.4513 12.8436 61.515 12.4828 61.6211 12.0796C61.7484 11.6764 61.95 11.2945 62.2259 10.9337C62.5229 10.573 62.9049 10.2759 63.3718 10.0424C63.8599 9.78779 64.4647 9.66047 65.1862 9.66047C66.2896 9.66047 67.1066 9.95756 67.6372 10.5517C68.1889 11.1459 68.5709 12.016 68.7831 13.1619ZM61.4301 16.0267H73.3031C73.388 14.7534 73.2819 13.5333 72.9848 12.3661C72.6877 11.199 72.1996 10.1592 71.5205 9.24666C70.8627 8.33417 70.0139 7.61266 68.9741 7.08215C67.9342 6.53041 66.714 6.25454 65.3135 6.25454C64.0615 6.25454 62.9155 6.47736 61.8757 6.92299C60.8571 7.36863 59.9765 7.98403 59.2337 8.7692C58.491 9.53314 57.918 10.4456 57.5149 11.5067C57.1117 12.5677 56.9101 13.7136 56.9101 14.9444C56.9101 16.2177 57.101 17.3848 57.483 18.4459C57.8862 19.5069 58.4486 20.4194 59.1701 21.1833C59.8916 21.9473 60.7722 22.5415 61.8121 22.9659C62.8519 23.3691 64.019 23.5707 65.3135 23.5707C67.1809 23.5707 68.7725 23.1462 70.0882 22.2974C71.4038 21.4486 72.38 20.0374 73.0166 18.0639H69.0377C68.8892 18.5732 68.486 19.0613 67.8281 19.5281C67.1703 19.9738 66.3851 20.1966 65.4726 20.1966C64.1994 20.1966 63.2232 19.8676 62.5442 19.2098C61.8651 18.552 61.4937 17.4909 61.4301 16.0267Z" fill="#FCE0CF"/>
<path d="M87.1884 12.4934H91.6129C91.5493 11.4324 91.2946 10.5199 90.849 9.75596C90.4034 8.97079 89.8198 8.32356 89.0983 7.81426C88.398 7.28374 87.5916 6.89116 86.6791 6.63651C85.7878 6.38186 84.8541 6.25454 83.878 6.25454C82.5411 6.25454 81.3527 6.47736 80.3129 6.92299C79.2731 7.36863 78.3924 7.99464 77.6709 8.80103C76.9494 9.58619 76.3977 10.5305 76.0157 11.634C75.6549 12.7163 75.4746 13.894 75.4746 15.1673C75.4746 16.3981 75.6762 17.5334 76.0794 18.5732C76.4825 19.5918 77.0449 20.4724 77.7664 21.2152C78.4879 21.9579 79.358 22.5415 80.3766 22.9659C81.4164 23.3691 82.5517 23.5707 83.7825 23.5707C85.9682 23.5707 87.7614 22.9977 89.1619 21.8518C90.5625 20.7059 91.4113 19.04 91.7084 16.8543H87.3476C87.199 17.8729 86.8277 18.6899 86.2335 19.3053C85.6605 19.8995 84.8329 20.1966 83.7507 20.1966C83.0504 20.1966 82.4562 20.0374 81.9681 19.7191C81.48 19.4008 81.0875 18.9976 80.7904 18.5095C80.5145 18.0002 80.3129 17.4379 80.1856 16.8225C80.0583 16.2071 79.9946 15.6023 79.9946 15.0081C79.9946 14.3927 80.0583 13.7773 80.1856 13.1619C80.3129 12.5253 80.5251 11.9523 80.8222 11.443C81.1405 10.9125 81.5437 10.4881 82.0318 10.1698C82.5199 9.83023 83.1246 9.66047 83.8462 9.66047C85.7772 9.66047 86.8913 10.6048 87.1884 12.4934Z" fill="#FCE0CF"/>
<path d="M98.2726 14.9444C98.2726 14.2866 98.3363 13.6394 98.4636 13.0027C98.5909 12.3661 98.8031 11.8038 99.1002 11.3157C99.4185 10.8276 99.8323 10.435 100.342 10.1379C100.851 9.81962 101.488 9.66047 102.252 9.66047C103.015 9.66047 103.652 9.81962 104.161 10.1379C104.692 10.435 105.106 10.8276 105.403 11.3157C105.721 11.8038 105.944 12.3661 106.071 13.0027C106.199 13.6394 106.262 14.2866 106.262 14.9444C106.262 15.6023 106.199 16.2495 106.071 16.8861C105.944 17.5015 105.721 18.0639 105.403 18.5732C105.106 19.0613 104.692 19.4538 104.161 19.7509C103.652 20.048 103.015 20.1966 102.252 20.1966C101.488 20.1966 100.851 20.048 100.342 19.7509C99.8323 19.4538 99.4185 19.0613 99.1002 18.5732C98.8031 18.0639 98.5909 17.5015 98.4636 16.8861C98.3363 16.2495 98.2726 15.6023 98.2726 14.9444ZM93.7526 14.9444C93.7526 16.2601 93.9542 17.4485 94.3574 18.5095C94.7606 19.5706 95.3335 20.483 96.0763 21.247C96.819 21.9897 97.7103 22.5627 98.7501 22.9659C99.7899 23.3691 100.957 23.5707 102.252 23.5707C103.546 23.5707 104.713 23.3691 105.753 22.9659C106.814 22.5627 107.716 21.9897 108.459 21.247C109.201 20.483 109.774 19.5706 110.177 18.5095C110.581 17.4485 110.782 16.2601 110.782 14.9444C110.782 13.6287 110.581 12.4404 110.177 11.3793C109.774 10.2971 109.201 9.3846 108.459 8.64187C107.716 7.87792 106.814 7.29435 105.753 6.89116C104.713 6.46675 103.546 6.25454 102.252 6.25454C100.957 6.25454 99.7899 6.46675 98.7501 6.89116C97.7103 7.29435 96.819 7.87792 96.0763 8.64187C95.3335 9.3846 94.7606 10.2971 94.3574 11.3793C93.9542 12.4404 93.7526 13.6287 93.7526 14.9444Z" fill="#FCE0CF"/>
<path d="M124.926 12.4934H129.35C129.287 11.4324 129.032 10.5199 128.586 9.75596C128.141 8.97079 127.557 8.32356 126.836 7.81426C126.135 7.28374 125.329 6.89116 124.416 6.63651C123.525 6.38186 122.591 6.25454 121.615 6.25454C120.278 6.25454 119.09 6.47736 118.05 6.92299C117.01 7.36863 116.13 7.99464 115.408 8.80103C114.687 9.58619 114.135 10.5305 113.753 11.634C113.392 12.7163 113.212 13.894 113.212 15.1673C113.212 16.3981 113.413 17.5334 113.817 18.5732C114.22 19.5918 114.782 20.4724 115.504 21.2152C116.225 21.9579 117.095 22.5415 118.114 22.9659C119.154 23.3691 120.289 23.5707 121.52 23.5707C123.706 23.5707 125.499 22.9977 126.899 21.8518C128.3 20.7059 129.149 19.04 129.446 16.8543H125.085C124.936 17.8729 124.565 18.6899 123.971 19.3053C123.398 19.8995 122.57 20.1966 121.488 20.1966C120.788 20.1966 120.193 20.0374 119.705 19.7191C119.217 19.4008 118.825 18.9976 118.528 18.5095C118.252 18.0002 118.05 17.4379 117.923 16.8225C117.796 16.2071 117.732 15.6023 117.732 15.0081C117.732 14.3927 117.796 13.7773 117.923 13.1619C118.05 12.5253 118.262 11.9523 118.559 11.443C118.878 10.9125 119.281 10.4881 119.769 10.1698C120.257 9.83023 120.862 9.66047 121.583 9.66047C123.515 9.66047 124.629 10.6048 124.926 12.4934Z" fill="#FCE0CF"/>
<path d="M136.01 14.9444C136.01 14.2866 136.074 13.6394 136.201 13.0027C136.328 12.3661 136.54 11.8038 136.837 11.3157C137.156 10.8276 137.57 10.435 138.079 10.1379C138.588 9.81962 139.225 9.66047 139.989 9.66047C140.753 9.66047 141.389 9.81962 141.899 10.1379C142.429 10.435 142.843 10.8276 143.14 11.3157C143.458 11.8038 143.681 12.3661 143.809 13.0027C143.936 13.6394 143.999 14.2866 143.999 14.9444C143.999 15.6023 143.936 16.2495 143.809 16.8861C143.681 17.5015 143.458 18.0639 143.14 18.5732C142.843 19.0613 142.429 19.4538 141.899 19.7509C141.389 20.048 140.753 20.1966 139.989 20.1966C139.225 20.1966 138.588 20.048 138.079 19.7509C137.57 19.4538 137.156 19.0613 136.837 18.5732C136.54 18.0639 136.328 17.5015 136.201 16.8861C136.074 16.2495 136.01 15.6023 136.01 14.9444ZM131.49 14.9444C131.49 16.2601 131.691 17.4485 132.095 18.5095C132.498 19.5706 133.071 20.483 133.814 21.247C134.556 21.9897 135.448 22.5627 136.487 22.9659C137.527 23.3691 138.694 23.5707 139.989 23.5707C141.283 23.5707 142.45 23.3691 143.49 22.9659C144.551 22.5627 145.453 21.9897 146.196 21.247C146.939 20.483 147.512 19.5706 147.915 18.5095C148.318 17.4485 148.52 16.2601 148.52 14.9444C148.52 13.6287 148.318 12.4404 147.915 11.3793C147.512 10.2971 146.939 9.3846 146.196 8.64187C145.453 7.87792 144.551 7.29435 143.49 6.89116C142.45 6.46675 141.283 6.25454 139.989 6.25454C138.694 6.25454 137.527 6.46675 136.487 6.89116C135.448 7.29435 134.556 7.87792 133.814 8.64187C133.071 9.3846 132.498 10.2971 132.095 11.3793C131.691 12.4404 131.49 13.6287 131.49 14.9444Z" fill="#FCE0CF"/>
</svg>
