<svg width="43" height="33" viewBox="0 0 43 33" fill="none" xmlns="http://www.w3.org/2000/svg">
<rect width="43" height="33" rx="8" fill="#E2DED4" fill-opacity="0.5"/>
<g clip-path="url(#clip0_2035_432)">
<path d="M24.3125 22.125V23.2969C24.3125 23.6852 23.9977 24 23.6094 24H15.6406C15.2523 24 14.9375 23.6852 14.9375 23.2969V12.5156C14.9375 12.1273 15.2523 11.8125 15.6406 11.8125H17.75V20.4844C17.75 21.389 18.486 22.125 19.3906 22.125H24.3125ZM24.3125 12.0469V9H19.3906C19.0023 9 18.6875 9.31479 18.6875 9.70312V20.4844C18.6875 20.8727 19.0023 21.1875 19.3906 21.1875H27.3594C27.7477 21.1875 28.0625 20.8727 28.0625 20.4844V12.75H25.0156C24.6289 12.75 24.3125 12.4336 24.3125 12.0469ZM27.8566 11.1378L25.9247 9.20593C25.7928 9.07407 25.614 9 25.4275 9H25.25V11.8125H28.0625V11.635C28.0625 11.4485 27.9884 11.2697 27.8566 11.1378Z" fill="black" fill-opacity="0.25"/>
</g>
<defs>
<clipPath id="clip0_2035_432">
<rect width="15" height="15" fill="white" transform="translate(14 9)"/>
</clipPath>
</defs>
</svg>
