<svg width="7" height="6" viewBox="0 0 7 6" fill="none" xmlns="http://www.w3.org/2000/svg">
<path d="M3.32861 3.47677C4.20491 3.47677 4.91587 2.76581 4.91587 1.88951C4.91587 1.01321 4.20491 0.302246 3.32861 0.302246C2.45231 0.302246 1.74134 1.01321 1.74134 1.88951C1.74134 2.76581 2.45231 3.47677 3.32861 3.47677ZM4.73951 3.8295H4.13216C3.88746 3.94193 3.6152 4.00586 3.32861 4.00586C3.04202 4.00586 2.77086 3.94193 2.52506 3.8295H1.91771C1.1384 3.8295 0.506805 4.4611 0.506805 5.2404V5.41676C0.506805 5.70886 0.743793 5.94585 1.03589 5.94585H5.62132C5.91342 5.94585 6.15041 5.70886 6.15041 5.41676V5.2404C6.15041 4.4611 5.51881 3.8295 4.73951 3.8295Z" fill="black"/>
</svg>
