<svg width="39" height="39" viewBox="0 0 39 39" fill="none" xmlns="http://www.w3.org/2000/svg">
<path d="M19.5 12.8375C18.1823 12.8375 16.8942 13.2283 15.7986 13.9604C14.7029 14.6924 13.849 15.733 13.3447 16.9504C12.8404 18.1678 12.7085 19.5075 12.9656 20.7998C13.2226 22.0922 13.8572 23.2794 14.789 24.2112C15.7207 25.1428 16.9078 25.7774 18.2002 26.0345C19.4927 26.2915 20.8322 26.1596 22.0496 25.6553C23.2671 25.1511 24.3076 24.2972 25.0396 23.2016C25.7719 22.1058 26.1625 20.8177 26.1625 19.5C26.1646 18.6245 25.9938 17.7572 25.6597 16.9479C25.3256 16.1386 24.8351 15.4032 24.2159 14.7842C23.5968 14.165 22.8615 13.6744 22.0522 13.3403C21.2428 13.0063 20.3756 12.8354 19.5 12.8375ZM19.5 23.8388C18.6419 23.8388 17.803 23.5843 17.0895 23.1075C16.3761 22.6309 15.82 21.9533 15.4916 21.1604C15.1632 20.3676 15.0773 19.4953 15.2447 18.6535C15.4121 17.812 15.8253 17.0388 16.432 16.432C17.0388 15.8253 17.812 15.4121 18.6536 15.2446C19.4953 15.0772 20.3676 15.1632 21.1604 15.4915C21.9533 15.8199 22.6309 16.3761 23.1075 17.0895C23.5843 17.803 23.8388 18.6418 23.8388 19.5C23.8388 20.6507 23.3817 21.7544 22.568 22.568C21.7544 23.3816 20.6507 23.8388 19.5 23.8388ZM27.9988 12.5613C27.9988 12.8827 27.9035 13.1969 27.725 13.4641C27.5464 13.7313 27.2925 13.9396 26.9957 14.0626C26.6988 14.1856 26.372 14.2177 26.0567 14.1551C25.7415 14.0923 25.4521 13.9376 25.2247 13.7103C24.9976 13.4831 24.8427 13.1935 24.78 12.8783C24.7172 12.5631 24.7494 12.2363 24.8724 11.9394C24.9954 11.6425 25.2038 11.3887 25.4709 11.2101C25.7382 11.0316 26.0523 10.9363 26.3738 10.9363C26.8047 10.9363 27.2181 11.1075 27.5228 11.4122C27.8277 11.717 27.9988 12.1303 27.9988 12.5613ZM32.4025 14.1863C32.4498 12.1661 31.6963 10.2092 30.3063 8.74252C28.8473 7.33476 26.8895 6.56333 24.8625 6.59752C22.75 6.50002 16.25 6.50002 14.1375 6.59752C12.118 6.55379 10.1624 7.30684 8.69379 8.69377C7.30383 10.1605 6.55028 12.1174 6.59754 14.1375C6.50004 16.25 6.50004 22.75 6.59754 24.8625C6.55028 26.8827 7.30383 28.8395 8.69379 30.3062C10.1624 31.6932 12.118 32.4462 14.1375 32.4025C16.2825 32.5325 22.7175 32.5325 24.8625 32.4025C26.8827 32.4498 28.8395 31.6963 30.3063 30.3062C31.6963 28.8395 32.4498 26.8827 32.4025 24.8625C32.5 22.75 32.5 16.25 32.4025 14.1375V14.1863ZM29.64 27.1862C29.4193 27.7452 29.0864 28.2527 28.6614 28.6777C28.2365 29.1026 27.729 29.4356 27.17 29.6563C24.6474 30.1663 22.0685 30.3412 19.5 30.1762C16.9371 30.3413 14.3634 30.1665 11.8463 29.6563C11.2874 29.4356 10.7798 29.1026 10.3549 28.6777C9.93001 28.2527 9.59693 27.7452 9.37629 27.1862C8.69379 25.4637 8.84004 21.4013 8.84004 19.5163C8.84004 17.6313 8.69379 13.5525 9.37629 11.8463C9.59071 11.2819 9.92141 10.7688 10.3469 10.3405C10.7725 9.91219 11.2833 9.57812 11.8463 9.36002C14.3634 8.84973 16.9371 8.67488 19.5 8.84002C22.0685 8.67516 24.6474 8.85001 27.17 9.36002C27.729 9.58066 28.2365 9.91373 28.6614 10.3386C29.0864 10.7635 29.4193 11.2711 29.64 11.83C30.3225 13.5525 30.16 17.615 30.16 19.5C30.16 21.385 30.3225 25.4637 29.64 27.17V27.1862Z" fill="white"/>
</svg>
