<svg width="12" height="23" viewBox="0 0 12 23" fill="none" xmlns="http://www.w3.org/2000/svg">
<path d="M7.65498 10.3451C9.0553 11.7469 9.03608 13.9943 7.66342 15.3745C7.66084 15.3774 7.65779 15.3804 7.65498 15.3832L6.07998 16.9582C4.69084 18.3474 2.43079 18.3472 1.04186 16.9582C-0.347285 15.5693 -0.347285 13.309 1.04186 11.9201L1.91153 11.0504C2.14215 10.8198 2.53932 10.9731 2.55123 11.299C2.56642 11.7144 2.6409 12.1317 2.77834 12.5347C2.82489 12.6711 2.79163 12.822 2.68968 12.924L2.38295 13.2307C1.72609 13.8876 1.70549 14.9571 2.35588 15.6204C3.01269 16.2902 4.09227 16.2942 4.75412 15.6324L6.32912 14.0576C6.98985 13.3969 6.98708 12.3289 6.32912 11.671C6.24238 11.5844 6.155 11.5171 6.08675 11.4701C6.03847 11.437 5.9986 11.393 5.97034 11.3417C5.94207 11.2904 5.92618 11.2332 5.92393 11.1747C5.91465 10.927 6.0024 10.6718 6.1981 10.4761L6.69156 9.98262C6.82096 9.85322 7.02395 9.83733 7.174 9.94205C7.34583 10.062 7.50678 10.1969 7.65498 10.3451ZM10.9581 7.04178C9.56921 5.65283 7.30916 5.65265 5.92002 7.04178L4.34502 8.61678C4.34221 8.61959 4.33916 8.62264 4.33658 8.62545C2.96394 10.0057 2.9447 12.2531 4.34502 13.6549C4.49321 13.8031 4.65415 13.9379 4.82598 14.0579C4.97603 14.1626 5.17904 14.1467 5.30842 14.0174L5.80187 13.5239C5.99757 13.3282 6.08532 13.073 6.07604 12.8253C6.0738 12.7668 6.05791 12.7096 6.02964 12.6583C6.00137 12.607 5.96151 12.563 5.91322 12.5299C5.84497 12.4829 5.7576 12.4156 5.67086 12.329C5.01289 11.6711 5.01013 10.6031 5.67086 9.94238L7.24586 8.36762C7.90771 7.70577 8.98726 7.70975 9.6441 8.37957C10.2945 9.04285 10.2739 10.1124 9.61703 10.7693L9.3103 11.076C9.20835 11.1779 9.17509 11.3289 9.22164 11.4653C9.35907 11.8683 9.43356 12.2856 9.44875 12.701C9.46068 13.0269 9.85782 13.1802 10.0884 12.9495L10.9581 12.0799C12.3473 10.691 12.3473 8.43069 10.9581 7.04178Z" fill="black" fill-opacity="0.3"/>
</svg>
