<svg width="350" height="78" viewBox="0 0 350 78" fill="none" xmlns="http://www.w3.org/2000/svg">
<path d="M71.1126 39.8195H78.4616C78.3559 38.0572 77.9329 36.5415 77.1927 35.2726C76.4525 33.9685 75.4832 32.8935 74.2848 32.0475C73.1217 31.1663 71.7823 30.5143 70.2667 30.0913C68.7863 29.6683 67.2354 29.4569 65.614 29.4569C63.3935 29.4569 61.4196 29.827 59.6925 30.5671C57.9654 31.3073 56.5026 32.3471 55.3042 33.6865C54.1058 34.9907 53.1894 36.5592 52.5549 38.392C51.9557 40.1896 51.6561 42.1459 51.6561 44.2607C51.6561 46.305 51.991 48.1908 52.6607 49.9179C53.3304 51.6097 54.2644 53.0725 55.4628 54.3061C56.6612 55.5398 58.1064 56.5091 59.7982 57.214C61.5253 57.8837 63.4111 58.2186 65.4554 58.2186C69.0859 58.2186 72.0643 57.2669 74.3906 55.3636C76.7169 53.4602 78.1268 50.6933 78.6203 47.0628H71.3769C71.1302 48.7547 70.5134 50.1117 69.5265 51.1339C68.5748 52.1208 67.2002 52.6143 65.4025 52.6143C64.2394 52.6143 63.2525 52.3499 62.4418 51.8212C61.6311 51.2925 60.979 50.6228 60.4856 49.8121C60.0273 48.9662 59.6925 48.0321 59.481 47.01C59.2695 45.9878 59.1638 44.9833 59.1638 43.9963C59.1638 42.9742 59.2695 41.952 59.481 40.9298C59.6925 39.8724 60.045 38.9207 60.5384 38.0748C61.0671 37.1936 61.7368 36.4887 62.5475 35.96C63.3582 35.396 64.3628 35.114 65.5612 35.114C68.7687 35.114 70.6191 36.6825 71.1126 39.8195Z" fill="#FACEBC"/>
<path d="M89.5232 43.8906C89.5232 42.7979 89.6289 41.7229 89.8404 40.6655C90.0519 39.6081 90.4044 38.674 90.8978 37.8633C91.4266 37.0526 92.1139 36.4006 92.9598 35.9071C93.8057 35.3784 94.8632 35.114 96.1321 35.114C97.401 35.114 98.4584 35.3784 99.3043 35.9071C100.185 36.4006 100.873 37.0526 101.366 37.8633C101.895 38.674 102.265 39.6081 102.477 40.6655C102.688 41.7229 102.794 42.7979 102.794 43.8906C102.794 44.9833 102.688 46.0583 102.477 47.1157C102.265 48.1379 101.895 49.0719 101.366 49.9179C100.873 50.7286 100.185 51.3806 99.3043 51.8741C98.4584 52.3675 97.401 52.6143 96.1321 52.6143C94.8632 52.6143 93.8057 52.3675 92.9598 51.8741C92.1139 51.3806 91.4266 50.7286 90.8978 49.9179C90.4044 49.0719 90.0519 48.1379 89.8404 47.1157C89.6289 46.0583 89.5232 44.9833 89.5232 43.8906ZM82.0155 43.8906C82.0155 46.0759 82.3504 48.0498 83.0201 49.8121C83.6898 51.5745 84.6415 53.0901 85.8751 54.359C87.1088 55.5927 88.5892 56.5443 90.3163 57.214C92.0434 57.8837 93.982 58.2186 96.1321 58.2186C98.2821 58.2186 100.221 57.8837 101.948 57.214C103.71 56.5443 105.208 55.5927 106.442 54.359C107.676 53.0901 108.627 51.5745 109.297 49.8121C109.967 48.0498 110.301 46.0759 110.301 43.8906C110.301 41.7053 109.967 39.7314 109.297 37.9691C108.627 36.1715 107.676 34.6558 106.442 33.4222C105.208 32.1533 103.71 31.184 101.948 30.5143C100.221 29.8093 98.2821 29.4569 96.1321 29.4569C93.982 29.4569 92.0434 29.8093 90.3163 30.5143C88.5892 31.184 87.1088 32.1533 85.8751 33.4222C84.6415 34.6558 83.6898 36.1715 83.0201 37.9691C82.3504 39.7314 82.0155 41.7053 82.0155 43.8906Z" fill="#FACEBC"/>
<path d="M134.587 43.7848C134.587 44.9128 134.481 46.0054 134.269 47.0628C134.058 48.1203 133.705 49.0719 133.212 49.9179C132.718 50.7286 132.049 51.3806 131.203 51.8741C130.392 52.3675 129.37 52.6143 128.136 52.6143C126.973 52.6143 125.969 52.3675 125.123 51.8741C124.312 51.3454 123.625 50.6757 123.061 49.865C122.532 49.0191 122.144 48.0674 121.898 47.01C121.651 45.9525 121.527 44.8951 121.527 43.8377C121.527 42.7098 121.633 41.6348 121.845 40.6126C122.091 39.5552 122.461 38.6211 122.955 37.8104C123.484 36.9998 124.171 36.3477 125.017 35.8542C125.863 35.3608 126.903 35.114 128.136 35.114C129.37 35.114 130.392 35.3608 131.203 35.8542C132.013 36.3477 132.666 36.9998 133.159 37.8104C133.688 38.5859 134.058 39.5023 134.269 40.5597C134.481 41.5819 134.587 42.6569 134.587 43.7848ZM134.692 54.0418V57.5313H141.83V19.7815H134.322V33.5279H134.216C133.37 32.1885 132.207 31.184 130.727 30.5143C129.282 29.8093 127.749 29.4569 126.127 29.4569C124.118 29.4569 122.356 29.8622 120.84 30.6729C119.324 31.4483 118.056 32.4881 117.033 33.7923C116.046 35.0964 115.289 36.612 114.76 38.3392C114.266 40.031 114.02 41.7934 114.02 43.6262C114.02 45.5296 114.266 47.3624 114.76 49.1248C115.289 50.8872 116.046 52.4557 117.033 53.8303C118.056 55.1697 119.342 56.2447 120.893 57.0554C122.444 57.8309 124.241 58.2186 126.286 58.2186C128.083 58.2186 129.687 57.9014 131.097 57.2669C132.542 56.5972 133.705 55.5222 134.587 54.0418H134.692Z" fill="#FACEBC"/>
<path d="M165.903 40.9298H153.69C153.725 40.4011 153.831 39.8019 154.007 39.1322C154.219 38.4625 154.554 37.8281 155.012 37.2289C155.505 36.6297 156.14 36.1362 156.915 35.7485C157.726 35.3255 158.731 35.114 159.929 35.114C161.762 35.114 163.119 35.6075 164 36.5944C164.916 37.5813 165.551 39.0265 165.903 40.9298ZM153.69 45.6882H173.411C173.552 43.5734 173.376 41.5467 172.882 39.6081C172.389 37.6695 171.578 35.9423 170.45 34.4267C169.358 32.9111 167.948 31.7127 166.221 30.8315C164.493 29.9151 162.467 29.4569 160.14 29.4569C158.061 29.4569 156.158 29.827 154.43 30.5671C152.739 31.3073 151.276 32.3295 150.042 33.6337C148.808 34.9026 147.857 36.4182 147.187 38.1805C146.517 39.9429 146.183 41.8463 146.183 43.8906C146.183 46.0054 146.5 47.944 147.134 49.7064C147.804 51.4687 148.738 52.9844 149.936 54.2533C151.135 55.5222 152.598 56.5091 154.325 57.214C156.052 57.8837 157.99 58.2186 160.14 58.2186C163.242 58.2186 165.886 57.5136 168.071 56.1037C170.256 54.6939 171.878 52.3499 172.935 49.0719H166.326C166.08 49.9179 165.41 50.7286 164.317 51.504C163.225 52.2442 161.92 52.6143 160.405 52.6143C158.29 52.6143 156.669 52.0679 155.541 50.9753C154.413 49.8826 153.796 48.1203 153.69 45.6882Z" fill="#FACEBC"/>
<path d="M196.474 39.8195H203.823C203.718 38.0572 203.295 36.5415 202.554 35.2726C201.814 33.9685 200.845 32.8935 199.647 32.0475C198.483 31.1663 197.144 30.5143 195.628 30.0913C194.148 29.6683 192.597 29.4569 190.976 29.4569C188.755 29.4569 186.781 29.827 185.054 30.5671C183.327 31.3073 181.864 32.3471 180.666 33.6865C179.467 34.9907 178.551 36.5592 177.917 38.392C177.317 40.1896 177.018 42.1459 177.018 44.2607C177.018 46.305 177.353 48.1908 178.022 49.9179C178.692 51.6097 179.626 53.0725 180.825 54.3061C182.023 55.5398 183.468 56.5091 185.16 57.214C186.887 57.8837 188.773 58.2186 190.817 58.2186C194.448 58.2186 197.426 57.2669 199.752 55.3636C202.079 53.4602 203.488 50.6933 203.982 47.0628H196.739C196.492 48.7547 195.875 50.1117 194.888 51.1339C193.936 52.1208 192.562 52.6143 190.764 52.6143C189.601 52.6143 188.614 52.3499 187.803 51.8212C186.993 51.2925 186.341 50.6228 185.847 49.8121C185.389 48.9662 185.054 48.0321 184.843 47.01C184.631 45.9878 184.525 44.9833 184.525 43.9963C184.525 42.9742 184.631 41.952 184.843 40.9298C185.054 39.8724 185.407 38.9207 185.9 38.0748C186.429 37.1936 187.099 36.4887 187.909 35.96C188.72 35.396 189.724 35.114 190.923 35.114C194.13 35.114 195.981 36.6825 196.474 39.8195Z" fill="#FACEBC"/>
<path d="M214.885 43.8906C214.885 42.7979 214.991 41.7229 215.202 40.6655C215.414 39.6081 215.766 38.674 216.26 37.8633C216.788 37.0526 217.476 36.4006 218.322 35.9071C219.167 35.3784 220.225 35.114 221.494 35.114C222.763 35.114 223.82 35.3784 224.666 35.9071C225.547 36.4006 226.235 37.0526 226.728 37.8633C227.257 38.674 227.627 39.6081 227.838 40.6655C228.05 41.7229 228.155 42.7979 228.155 43.8906C228.155 44.9833 228.05 46.0583 227.838 47.1157C227.627 48.1379 227.257 49.0719 226.728 49.9179C226.235 50.7286 225.547 51.3806 224.666 51.8741C223.82 52.3675 222.763 52.6143 221.494 52.6143C220.225 52.6143 219.167 52.3675 218.322 51.8741C217.476 51.3806 216.788 50.7286 216.26 49.9179C215.766 49.0719 215.414 48.1379 215.202 47.1157C214.991 46.0583 214.885 44.9833 214.885 43.8906ZM207.377 43.8906C207.377 46.0759 207.712 48.0498 208.382 49.8121C209.051 51.5745 210.003 53.0901 211.237 54.359C212.47 55.5927 213.951 56.5443 215.678 57.214C217.405 57.8837 219.344 58.2186 221.494 58.2186C223.644 58.2186 225.582 57.8837 227.31 57.214C229.072 56.5443 230.57 55.5927 231.804 54.359C233.037 53.0901 233.989 51.5745 234.659 49.8121C235.328 48.0498 235.663 46.0759 235.663 43.8906C235.663 41.7053 235.328 39.7314 234.659 37.9691C233.989 36.1715 233.037 34.6558 231.804 33.4222C230.57 32.1533 229.072 31.184 227.31 30.5143C225.582 29.8093 223.644 29.4569 221.494 29.4569C219.344 29.4569 217.405 29.8093 215.678 30.5143C213.951 31.184 212.47 32.1533 211.237 33.4222C210.003 34.6558 209.051 36.1715 208.382 37.9691C207.712 39.7314 207.377 41.7053 207.377 43.8906Z" fill="#FACEBC"/>
<path d="M259.155 39.8195H266.504C266.398 38.0572 265.975 36.5415 265.235 35.2726C264.495 33.9685 263.526 32.8935 262.327 32.0475C261.164 31.1663 259.825 30.5143 258.309 30.0913C256.829 29.6683 255.278 29.4569 253.657 29.4569C251.436 29.4569 249.462 29.827 247.735 30.5671C246.008 31.3073 244.545 32.3471 243.347 33.6865C242.148 34.9907 241.232 36.5592 240.597 38.392C239.998 40.1896 239.699 42.1459 239.699 44.2607C239.699 46.305 240.034 48.1908 240.703 49.9179C241.373 51.6097 242.307 53.0725 243.505 54.3061C244.704 55.5398 246.149 56.5091 247.841 57.214C249.568 57.8837 251.454 58.2186 253.498 58.2186C257.128 58.2186 260.107 57.2669 262.433 55.3636C264.759 53.4602 266.169 50.6933 266.663 47.0628H259.419C259.173 48.7547 258.556 50.1117 257.569 51.1339C256.617 52.1208 255.243 52.6143 253.445 52.6143C252.282 52.6143 251.295 52.3499 250.484 51.8212C249.674 51.2925 249.022 50.6228 248.528 49.8121C248.07 48.9662 247.735 48.0321 247.524 47.01C247.312 45.9878 247.206 44.9833 247.206 43.9963C247.206 42.9742 247.312 41.952 247.524 40.9298C247.735 39.8724 248.087 38.9207 248.581 38.0748C249.11 37.1936 249.779 36.4887 250.59 35.96C251.401 35.396 252.405 35.114 253.604 35.114C256.811 35.114 258.662 36.6825 259.155 39.8195Z" fill="#FACEBC"/>
<path d="M277.566 43.8906C277.566 42.7979 277.671 41.7229 277.883 40.6655C278.094 39.6081 278.447 38.674 278.94 37.8633C279.469 37.0526 280.156 36.4006 281.002 35.9071C281.848 35.3784 282.906 35.114 284.175 35.114C285.443 35.114 286.501 35.3784 287.347 35.9071C288.228 36.4006 288.915 37.0526 289.409 37.8633C289.938 38.674 290.308 39.6081 290.519 40.6655C290.731 41.7229 290.836 42.7979 290.836 43.8906C290.836 44.9833 290.731 46.0583 290.519 47.1157C290.308 48.1379 289.938 49.0719 289.409 49.9179C288.915 50.7286 288.228 51.3806 287.347 51.8741C286.501 52.3675 285.443 52.6143 284.175 52.6143C282.906 52.6143 281.848 52.3675 281.002 51.8741C280.156 51.3806 279.469 50.7286 278.94 49.9179C278.447 49.0719 278.094 48.1379 277.883 47.1157C277.671 46.0583 277.566 44.9833 277.566 43.8906ZM270.058 43.8906C270.058 46.0759 270.393 48.0498 271.063 49.8121C271.732 51.5745 272.684 53.0901 273.918 54.359C275.151 55.5927 276.632 56.5443 278.359 57.214C280.086 57.8837 282.025 58.2186 284.175 58.2186C286.325 58.2186 288.263 57.8837 289.99 57.214C291.753 56.5443 293.251 55.5927 294.484 54.359C295.718 53.0901 296.67 51.5745 297.339 49.8121C298.009 48.0498 298.344 46.0759 298.344 43.8906C298.344 41.7053 298.009 39.7314 297.339 37.9691C296.67 36.1715 295.718 34.6558 294.484 33.4222C293.251 32.1533 291.753 31.184 289.99 30.5143C288.263 29.8093 286.325 29.4569 284.175 29.4569C282.025 29.4569 280.086 29.8093 278.359 30.5143C276.632 31.184 275.151 32.1533 273.918 33.4222C272.684 34.6558 271.732 36.1715 271.063 37.9691C270.393 39.7314 270.058 41.7053 270.058 43.8906Z" fill="#FACEBC"/>
</svg>
