<svg width="39" height="39" viewBox="0 0 39 39" fill="none" xmlns="http://www.w3.org/2000/svg">
<path d="M21.5972 25.2327C21.5971 26.4784 21.2277 27.6961 20.5356 28.7319C19.8435 29.7676 18.8599 30.575 17.709 31.0518C16.5581 31.5286 15.2917 31.6534 14.0698 31.4104C12.848 31.1673 11.7257 30.5674 10.8449 29.6865C9.96395 28.8056 9.36403 27.6833 9.12101 26.4615C8.87798 25.2397 9.00277 23.9732 9.47959 22.8223C9.95633 21.6715 10.7636 20.6878 11.7994 19.9957C12.8352 19.3036 14.0529 18.9342 15.2986 18.9341" stroke="white" stroke-width="1.98902" stroke-linecap="round"/>
<path d="M21.5967 25.2327V7C21.5967 9.98353 25.5747 15.2876 30.2158 15.2876" stroke="white" stroke-width="1.98902" stroke-linecap="round" stroke-linejoin="round"/>
</svg>
