<svg width="17" height="17" viewBox="0 0 17 17" fill="none" xmlns="http://www.w3.org/2000/svg">
<path d="M8.50386 4.68159C6.39214 4.68159 4.68882 6.38491 4.68882 8.49663C4.68882 10.6083 6.39214 12.3117 8.50386 12.3117C10.6156 12.3117 12.3189 10.6083 12.3189 8.49663C12.3189 6.38491 10.6156 4.68159 8.50386 4.68159ZM8.50386 10.9769C7.13921 10.9769 6.02358 9.8646 6.02358 8.49663C6.02358 7.12866 7.13589 6.01636 8.50386 6.01636C9.87183 6.01636 10.9841 7.12866 10.9841 8.49663C10.9841 9.8646 9.86851 10.9769 8.50386 10.9769ZM13.3648 4.52554C13.3648 5.02026 12.9664 5.41538 12.475 5.41538C11.9802 5.41538 11.5851 5.01694 11.5851 4.52554C11.5851 4.03413 11.9835 3.63569 12.475 3.63569C12.9664 3.63569 13.3648 4.03413 13.3648 4.52554ZM15.8916 5.42866C15.8351 4.23667 15.5628 3.18081 14.6896 2.31089C13.8197 1.44097 12.7638 1.1687 11.5718 1.10894C10.3433 1.03921 6.66108 1.03921 5.43257 1.10894C4.2439 1.16538 3.18804 1.43765 2.3148 2.30757C1.44155 3.17749 1.17261 4.23335 1.11284 5.42534C1.04312 6.65386 1.04312 10.3361 1.11284 11.5646C1.16929 12.7566 1.44155 13.8125 2.3148 14.6824C3.18804 15.5523 4.24058 15.8246 5.43257 15.8843C6.66108 15.9541 10.3433 15.9541 11.5718 15.8843C12.7638 15.8279 13.8197 15.5556 14.6896 14.6824C15.5595 13.8125 15.8318 12.7566 15.8916 11.5646C15.9613 10.3361 15.9613 6.65718 15.8916 5.42866ZM14.3044 12.8828C14.0455 13.5335 13.5441 14.0349 12.89 14.2972C11.9105 14.6857 9.58628 14.596 8.50386 14.596C7.42144 14.596 5.0939 14.6824 4.11772 14.2972C3.46694 14.0382 2.96558 13.5369 2.70327 12.8828C2.3148 11.9033 2.40444 9.57905 2.40444 8.49663C2.40444 7.41421 2.31812 5.08667 2.70327 4.1105C2.96226 3.45972 3.46362 2.95835 4.11772 2.69604C5.09722 2.30757 7.42144 2.39722 8.50386 2.39722C9.58628 2.39722 11.9138 2.31089 12.89 2.69604C13.5408 2.95503 14.0421 3.4564 14.3044 4.1105C14.6929 5.08999 14.6033 7.41421 14.6033 8.49663C14.6033 9.57905 14.6929 11.9066 14.3044 12.8828Z" fill="black"/>
</svg>
