<svg width="16" height="40" viewBox="0 0 16 40" fill="none" xmlns="http://www.w3.org/2000/svg">
<g opacity="0.5">
<path d="M14.0625 18.5938H9.84375V14.375C9.84375 13.8573 9.42393 13.4375 8.90625 13.4375H7.96875C7.45107 13.4375 7.03125 13.8573 7.03125 14.375V18.5938H2.8125C2.29482 18.5938 1.875 19.0136 1.875 19.5312V20.4688C1.875 20.9864 2.29482 21.4062 2.8125 21.4062H7.03125V25.625C7.03125 26.1427 7.45107 26.5625 7.96875 26.5625H8.90625C9.42393 26.5625 9.84375 26.1427 9.84375 25.625V21.4062H14.0625C14.5802 21.4062 15 20.9864 15 20.4688V19.5312C15 19.0136 14.5802 18.5938 14.0625 18.5938Z" fill="black"/>
</g>
</svg>
