<svg width="17" height="17" viewBox="0 0 17 17" fill="none" xmlns="http://www.w3.org/2000/svg">
<path fill-rule="evenodd" clip-rule="evenodd" d="M2.35966 1.04001C2.15469 1.08957 1.83275 1.25016 1.65434 1.39184C1.37052 1.61722 1.14214 1.97488 1.04868 2.34037C1.00089 2.52719 0.999618 2.68671 1.00005 8.48228C1.00056 15.0942 0.987545 14.6114 1.17549 14.9916C1.41955 15.4852 1.87563 15.8491 2.38564 15.9572C2.65253 16.0137 14.3774 16.014 14.6171 15.9575C15.2799 15.8012 15.802 15.2782 15.9587 14.6137C16.0133 14.3825 16.014 2.64996 15.9595 2.39281C15.8245 1.75611 15.2986 1.21265 14.659 1.04908C14.4666 0.999871 14.3552 0.999007 8.48752 1.00107C3.3621 1.0029 2.49031 1.00844 2.35966 1.04001ZM10.3346 3.64243C10.4446 4.41237 10.977 5.16487 11.6966 5.56729C11.9197 5.69207 12.2877 5.81593 12.5523 5.85528L12.7682 5.88741V6.7094V7.53139L12.6601 7.53422C11.9922 7.55165 11.4448 7.383 10.9317 7.00171C10.7674 6.8796 10.5074 6.61586 10.3937 6.45588C10.3158 6.34633 10.3074 6.34107 10.2938 6.3931C10.2856 6.42434 10.2786 7.42977 10.2781 8.62739C10.2773 10.4751 10.2713 10.836 10.2382 11.0104C10.0623 11.9375 9.47084 12.7328 8.64087 13.1582C7.78039 13.5992 6.80673 13.6101 5.94211 13.1883C5.10822 12.7816 4.5263 12.0618 4.30175 11.1594C4.23442 10.8887 4.20951 10.3357 4.25165 10.0473C4.29479 9.7524 4.38975 9.43986 4.51979 9.16491C5.0144 8.11911 6.09576 7.42972 7.24158 7.42972H7.43038V8.16685V8.90397H7.24382C7.14054 8.90397 6.96864 8.92664 6.85876 8.95473C6.31931 9.0927 5.87976 9.53693 5.74047 10.0849C5.69113 10.279 5.69105 10.6549 5.74031 10.8495C5.92213 11.5678 6.61513 12.0708 7.35413 12.0208C7.7811 11.992 8.1505 11.8248 8.43684 11.5307C8.64725 11.3147 8.75909 11.1194 8.82901 10.846C8.87705 10.6582 8.87921 10.5577 8.87921 8.52283C8.87921 7.35304 8.88681 5.74191 8.89609 4.94254L8.91297 3.48914L9.61382 3.49587L10.3146 3.50263L10.3346 3.64243Z" fill="black"/>
</svg>
