<svg width="20" height="20" viewBox="0 0 20 20" fill="none" xmlns="http://www.w3.org/2000/svg">
<g clip-path="url(#clip0_755_357)">
<path d="M18.125 0C19.1605 0 20 0.839453 20 1.875V13.125C20 14.1605 19.1605 15 18.125 15H6.875C5.83945 15 5 14.1605 5 13.125V1.875C5 0.839453 5.83945 0 6.875 0H18.125ZM6.875 16.25C5.15188 16.25 3.75 14.8481 3.75 13.125V5H1.875C0.839453 5 0 5.83945 0 6.875V18.125C0 19.1605 0.839453 20 1.875 20H13.125C14.1605 20 15 19.1605 15 18.125V16.25H6.875Z" fill="black" fill-opacity="0.35"/>
</g>
<defs>
<clipPath id="clip0_755_357">
<rect width="20" height="20" fill="white"/>
</clipPath>
</defs>
</svg>
