<svg width="22" height="22" viewBox="0 0 22 22" fill="none" xmlns="http://www.w3.org/2000/svg">
<path fill-rule="evenodd" clip-rule="evenodd" d="M1.99417 0.0579601C1.69355 0.130656 1.22136 0.36619 0.959693 0.573987C0.543427 0.904547 0.208468 1.42911 0.07139 1.96516C0.00130401 2.23916 -0.000559772 2.47313 7.3985e-05 10.9733C0.000819581 20.6708 -0.0182674 19.9627 0.25738 20.5203C0.61534 21.2443 1.28425 21.778 2.03227 21.9365C2.42371 22.0194 19.6202 22.0198 19.9718 21.9369C20.9438 21.7077 21.7097 20.9406 21.9395 19.9661C22.0195 19.6269 22.0205 2.41923 21.9406 2.04207C21.7427 1.10824 20.9713 0.311165 20.0333 0.071269C19.751 -0.000904672 19.5876 -0.00217218 10.9817 0.00084748C3.46441 0.00353163 2.18579 0.0116586 1.99417 0.0579601ZM13.6908 3.87485C13.852 5.0041 14.633 6.10776 15.6883 6.69798C16.0156 6.88098 16.5553 7.06265 16.9434 7.12036L17.26 7.16748V8.37307V9.57866L17.1015 9.5828C16.1219 9.60837 15.319 9.36102 14.5665 8.80179C14.3255 8.6227 13.9442 8.23588 13.7774 8.00124C13.6632 7.84057 13.6509 7.83285 13.6309 7.90916C13.6189 7.95498 13.6085 9.42962 13.6078 11.1861C13.6067 13.8961 13.5978 14.4255 13.5493 14.6812C13.2914 16.041 12.4239 17.2074 11.2066 17.8313C9.94457 18.4781 8.51653 18.4941 7.24842 17.8755C6.02538 17.2789 5.1719 16.2232 4.84257 14.8997C4.74382 14.5027 4.70728 13.6916 4.76909 13.2687C4.83236 12.8361 4.97163 12.3777 5.16236 11.9745C5.88778 10.4406 7.47378 9.42954 9.15432 9.42954H9.43123V10.5107V11.5918H9.1576C9.00613 11.5918 8.75401 11.625 8.59284 11.6662C7.80166 11.8686 7.15698 12.5201 6.95268 13.3238C6.88032 13.6085 6.88021 14.1598 6.95246 14.4452C7.21912 15.4987 8.23552 16.2365 9.31939 16.1632C9.94562 16.1208 10.4874 15.8756 10.9074 15.4443C11.216 15.1275 11.38 14.8411 11.4826 14.4401C11.553 14.1646 11.5562 14.0172 11.5562 11.0328C11.5562 9.31707 11.5673 6.95409 11.5809 5.78168L11.6057 3.65002L12.6336 3.6599L13.6615 3.66981L13.6908 3.87485Z" fill="black" fill-opacity="0.8"/>
</svg>
